<svg width="66" height="66" viewBox="0 0 66 66" fill="none" xmlns="http://www.w3.org/2000/svg">
<circle cx="33" cy="33" r="33" fill="#F3D69A"/>
<path d="M30.534 12.1688C30.3863 12.3059 30.3652 12.7488 30.3652 15.3855V18.4336H26.9375C23.6469 18.4336 23.4992 18.4441 23.2988 18.6445C23.0879 18.8555 23.0879 18.9926 23.0879 26.291V33.7266H20.0504C17.2344 33.7266 16.9918 33.7371 16.8336 33.9164C16.6648 34.0957 16.6543 35.3191 16.6543 49.3676V64.6289H13.6484H10.6426V62.741V60.8531L10.9801 60.7793C11.9293 60.5789 13.0684 59.6086 13.4902 58.6488C14.1863 57.0668 13.8277 55.2316 12.5937 54.0926L12.0137 53.5758L12.6254 52.9535C13.332 52.2363 13.6484 51.6352 13.7855 50.7598C14.0703 48.9984 13.1527 47.2582 11.5602 46.5305C10.9801 46.2563 10.7902 46.2246 9.90429 46.2246C9.05 46.2246 8.81797 46.2668 8.32226 46.4988C7.58398 46.8469 7.0039 47.3426 6.58203 48.0176C6.11797 48.7559 5.97031 49.3887 6.02304 50.4117C6.05468 51.15 6.11797 51.3926 6.42382 51.9516C6.61367 52.3207 7.01445 52.827 7.29922 53.0906L7.81601 53.5547L7.29922 54.0188C7.01445 54.2824 6.61367 54.7887 6.42382 55.1578C6.11797 55.7273 6.05468 55.9488 6.02304 56.7188C6.00195 57.2145 6.03359 57.8051 6.09687 58.0371C6.40273 59.1762 7.49961 60.3469 8.58593 60.6844L9.16601 60.8742V62.7516V64.6289H7.76328C6.52929 64.6289 6.3289 64.65 6.18125 64.8188C5.95976 65.0613 5.94922 65.6203 6.1707 65.8312C6.31836 65.9789 8.90234 66 33.0019 66C57.1016 66 59.6855 65.9789 59.8332 65.8312C60.0652 65.6098 60.0441 65.0191 59.8121 64.8082C59.6539 64.6605 59.3691 64.6289 58.2301 64.6289H56.8379V62.7516V60.8742L57.418 60.6844C58.5043 60.3469 59.6012 59.1762 59.907 58.0371C59.9703 57.8051 60.0019 57.2145 59.9809 56.7188C59.9492 55.9488 59.8859 55.7273 59.5801 55.1578C59.3902 54.7887 58.9894 54.2824 58.7047 54.0188L58.1879 53.5547L58.7047 53.0906C58.9894 52.827 59.3902 52.3207 59.5801 51.9516C59.8859 51.3926 59.9492 51.15 59.9809 50.4117C60.0336 49.3887 59.8859 48.7559 59.4219 48.0176C59 47.3426 58.4199 46.8469 57.6816 46.4988C57.1859 46.2668 56.9539 46.2246 56.0996 46.2246C55.2137 46.2246 55.0238 46.2563 54.4437 46.5305C52.8406 47.2687 51.9336 48.9879 52.2183 50.7598C52.3555 51.6457 52.6719 52.2469 53.3785 52.9535L53.9902 53.5758L53.4101 54.0926C52.1762 55.2211 51.8176 57.0668 52.5137 58.6383C52.9355 59.6086 54.0746 60.5789 55.0238 60.7793L55.3613 60.8531V62.741V64.6289H52.3555H49.3496V43.0289C49.3391 25.6582 49.318 21.4078 49.2125 21.2602C48.875 20.8277 48.7168 20.8699 43.6965 23.0109L38.8555 25.0676L38.8027 21.9141C38.75 18.9188 38.7394 18.75 38.5391 18.6023C38.3598 18.4652 37.8008 18.4441 35.0375 18.4336H31.7363V15.3855C31.7363 12 31.7363 12 31.0508 12C30.8609 12 30.6184 12.0738 30.534 12.1688ZM37.3262 22.4414V24.9727H30.9453H24.5644V22.4414V19.9102H30.9453H37.3262V22.4414ZM47.873 43.7461V64.6289H46.0273H44.1816V61.0957C44.1816 57.6996 44.1711 57.552 43.9707 57.3516C43.7703 57.1512 43.6227 57.1406 39.5516 57.1406H35.3328L35.1219 57.4148C34.9109 57.6891 34.9004 57.8156 34.9004 61.159V64.6289H33.0547H31.209L31.2301 47.2582L31.2617 29.898L39.4883 26.3859C44.0129 24.4559 47.7465 22.8738 47.7992 22.8738C47.8414 22.8633 47.873 32.2605 47.873 43.7461ZM32.9492 27.5672C31.3672 28.2316 30.0172 28.875 29.9223 28.991C29.7535 29.1914 29.7324 29.4762 29.7324 31.4695V33.7266H27.1484H24.5644V30.0352V26.3438H30.1859L35.7969 26.3543L32.9492 27.5672ZM29.7324 49.8633V64.6289H23.9316H18.1309V49.8633V35.0977H23.9316H29.7324V49.8633ZM10.8324 47.8172C11.5918 48.1336 12.2141 48.9352 12.3723 49.7895C12.4777 50.3484 12.193 51.2449 11.7711 51.7301C11.3387 52.2152 10.516 52.6055 9.90429 52.6055C9.33476 52.6055 8.49101 52.2258 8.09023 51.8039C6.97226 50.6016 7.38359 48.5555 8.90234 47.8488C9.41914 47.6062 10.3051 47.5957 10.8324 47.8172ZM57.1016 47.8488C58.6203 48.5555 59.0316 50.6016 57.9137 51.8039C57.5129 52.2258 56.6691 52.6055 56.0996 52.6055C55.4879 52.6055 54.6652 52.2152 54.2328 51.7301C53.8109 51.2449 53.5262 50.3484 53.6316 49.7895C53.7793 48.9457 54.4016 48.1441 55.1504 47.8172C55.6672 47.5957 56.5848 47.6062 57.1016 47.8488ZM10.8324 54.6727C12.1191 55.2105 12.7625 56.8559 12.1402 58.0477C11.866 58.5961 11.1488 59.2184 10.6531 59.3555C9.75664 59.598 8.70195 59.3133 8.09023 58.6594C7.46797 57.9844 7.27812 56.8875 7.63672 56.0016C7.84765 55.4953 8.61757 54.757 9.10273 54.6199C9.61953 54.4723 10.4 54.4934 10.8324 54.6727ZM56.8484 54.6094C57.3758 54.757 58.1457 55.4637 58.3672 56.0016C58.5992 56.5816 58.5992 57.3938 58.3777 57.9316C57.8926 59.0707 56.5742 59.693 55.3508 59.3555C54.8551 59.2184 54.1379 58.5961 53.8637 58.0477C53.5578 57.457 53.5578 56.5078 53.8531 55.9277C54.4543 54.7781 55.6144 54.2719 56.8484 54.6094ZM42.8105 61.623V64.6289H39.5937H36.3769V61.623V58.6172H39.5937H42.8105V61.623Z" fill="#232323"/>
<path d="M34.2897 35.2666C34.0155 35.4564 33.9733 35.9943 34.2053 36.3213C34.353 36.5111 34.5533 36.5217 39.4787 36.5533L44.6045 36.585L44.8682 36.3213C45.1846 35.9943 45.2057 35.7412 44.9104 35.3721L44.6994 35.0979H39.6053C35.1756 35.0979 34.5006 35.1189 34.2897 35.2666Z" fill="#232323"/>
<path d="M34.4771 39.2214C34.1501 39.3585 34.0552 39.4956 34.0552 39.907C34.0552 40.6031 33.8865 40.582 39.5712 40.582C44.5705 40.582 44.7181 40.5714 44.9185 40.371C45.1822 40.1074 45.1927 39.7277 44.929 39.4113L44.7287 39.1581L39.7294 39.137C36.597 39.1265 34.6458 39.1581 34.4771 39.2214Z" fill="#232323"/>
<path d="M34.4771 43.3347C34.1501 43.4718 34.0552 43.6089 34.0552 44.0202C34.0552 44.7163 33.8865 44.6952 39.5712 44.6952C44.5705 44.6952 44.7181 44.6847 44.9185 44.4843C45.1822 44.2206 45.1927 43.8409 44.929 43.5245L44.7287 43.2714L39.7294 43.2503C36.597 43.2398 34.6458 43.2714 34.4771 43.3347Z" fill="#232323"/>
<path d="M34.2361 47.5219C33.867 47.9333 34.0779 48.6293 34.6158 48.7559C34.7424 48.7875 37.0732 48.7981 39.7838 48.7875L44.7302 48.7559L44.9306 48.5028C45.1943 48.1864 45.1838 47.8489 44.9201 47.5641L44.6986 47.3321H39.5517C34.7002 47.3321 34.3943 47.3426 34.2361 47.5219Z" fill="#232323"/>
<path d="M34.4801 51.4137C34.0161 51.5824 33.9 52.3734 34.2903 52.6477C34.5012 52.7953 35.1762 52.8164 39.6059 52.8164H44.7L44.911 52.5422C45.1958 52.173 45.1852 51.9199 44.8688 51.6035L44.6157 51.3398L39.627 51.3504C36.8848 51.3504 34.5645 51.382 34.4801 51.4137Z" fill="#232323"/>
<path d="M21.4421 38.5255C21.1785 38.7892 21.1679 38.8314 21.2101 39.9494C21.2417 41.2361 21.3367 41.4365 21.9167 41.447C22.5496 41.4681 22.6656 41.2255 22.6656 39.8861C22.6656 38.7259 22.655 38.6943 22.3914 38.4834C22.0222 38.188 21.7691 38.2091 21.4421 38.5255Z" fill="#232323"/>
<path d="M25.4695 38.4834C25.2059 38.6943 25.1953 38.7259 25.1953 39.8861C25.1953 41.2255 25.3113 41.4681 25.9441 41.447C26.5242 41.4365 26.6191 41.2361 26.6508 39.9494C26.693 38.8314 26.6824 38.7892 26.4187 38.5255C26.0918 38.2091 25.8387 38.188 25.4695 38.4834Z" fill="#232323"/>
<path d="M21.7148 43.3243C21.3141 43.4192 21.1875 43.7884 21.1875 44.938C21.1875 45.8978 21.2086 45.9927 21.4512 46.2247C21.7676 46.5411 22.0207 46.5517 22.3898 46.2669C22.6535 46.056 22.6641 46.0243 22.6641 44.8642C22.6641 43.8622 22.6324 43.6513 22.4848 43.5142C22.2211 43.2927 22.0207 43.2399 21.7148 43.3243Z" fill="#232323"/>
<path d="M25.7227 43.3032C25.2586 43.4509 25.1953 43.6302 25.1953 44.8642C25.1953 46.0243 25.2059 46.056 25.4695 46.2669C25.8387 46.5517 26.0918 46.5411 26.4082 46.2247C26.6508 45.9927 26.6719 45.8978 26.6719 44.938C26.6719 44.3263 26.6191 43.7989 26.5348 43.6513C26.4082 43.3876 26.0074 43.2189 25.7227 43.3032Z" fill="#232323"/>
<path d="M21.5461 48.3656C21.2824 48.5344 21.1875 48.9457 21.1875 49.8633C21.1875 50.7809 21.2824 51.1922 21.5461 51.3609C21.7676 51.5086 22.2422 51.4453 22.4531 51.2344C22.643 51.0445 22.6641 50.8863 22.6641 49.8633C22.6641 48.8402 22.643 48.682 22.4531 48.4922C22.2422 48.2812 21.7676 48.218 21.5461 48.3656Z" fill="#232323"/>
<path d="M25.4063 48.4922C25.2164 48.682 25.1953 48.8402 25.1953 49.8633C25.1953 50.8863 25.2164 51.0445 25.4063 51.2344C25.6172 51.4453 26.0918 51.5086 26.3133 51.3609C26.577 51.1922 26.6719 50.7809 26.6719 49.8633C26.6719 48.9457 26.577 48.5344 26.3133 48.3656C26.0918 48.218 25.6172 48.2812 25.4063 48.4922Z" fill="#232323"/>
<path d="M21.4421 53.5017C21.1785 53.7653 21.1679 53.8075 21.2101 54.9255C21.2312 55.8325 21.2839 56.1173 21.421 56.2544C21.6531 56.497 22.191 56.4864 22.4546 56.2439C22.6445 56.0751 22.6656 55.9169 22.6656 54.8622C22.6656 53.7021 22.655 53.6704 22.3914 53.4595C22.0222 53.1642 21.7691 53.1853 21.4421 53.5017Z" fill="#232323"/>
<path d="M25.4695 53.4595C25.2059 53.6704 25.1953 53.7021 25.1953 54.8622C25.1953 55.9169 25.2164 56.0751 25.4062 56.2439C25.6699 56.4864 26.2078 56.497 26.4398 56.2544C26.577 56.1173 26.6297 55.8325 26.6508 54.9255C26.693 53.8075 26.6824 53.7653 26.4187 53.5017C26.0918 53.1853 25.8387 53.1642 25.4695 53.4595Z" fill="#232323"/>
<path d="M21.4421 58.4489C21.2734 58.5755 21.2417 58.7548 21.2101 59.7673C21.1679 60.8958 21.1785 60.938 21.4421 61.2017C21.7691 61.5286 22.1382 61.5392 22.4335 61.2228C22.6445 61.0013 22.6656 60.8642 22.6656 59.8095C22.6656 58.8181 22.6339 58.6282 22.4757 58.4806C22.2332 58.2591 21.7269 58.2485 21.4421 58.4489Z" fill="#232323"/>
<path d="M25.3746 58.4908C25.227 58.649 25.1953 58.9127 25.1953 59.8513C25.1953 60.9271 25.2164 61.022 25.4379 61.233C25.7754 61.5494 26.1867 61.5283 26.4609 61.1802C26.6719 60.9166 26.6824 60.7795 26.6508 59.7459C26.6191 58.7545 26.5875 58.5752 26.4187 58.4486C26.1234 58.2377 25.575 58.2588 25.3746 58.4908Z" fill="#232323"/>
</svg>
