<svg width="66" height="66" viewBox="0 0 66 66" fill="none" xmlns="http://www.w3.org/2000/svg">
<circle cx="33" cy="33" r="33" fill="#F3D69A"/>
<g clip-path="url(#clip0_357_28148)">
<path d="M31.1693 16.3476C29.1841 16.6698 27.6115 17.2628 25.9486 18.3456C21.0502 21.5425 19.0134 27.73 21.0244 33.2858C21.4884 34.5749 22.5326 36.3022 23.538 37.4366C23.9248 37.8749 24.2341 38.2616 24.2341 38.3003C24.2341 38.3261 23.9892 38.455 23.6927 38.5968C22.8935 38.9448 21.308 39.8858 20.5345 40.4659L19.8771 40.9558L19.4517 40.221C18.5623 38.6355 16.7576 37.269 14.8884 36.7792C13.9087 36.5343 12.1298 36.5343 11.163 36.7792C8.63648 37.4366 6.52242 39.5507 5.87789 42.0772C5.33648 44.1655 5.85211 46.705 7.14117 48.4323L7.47633 48.8835L6.9607 49.1671C3.8025 50.9589 1.53375 54.4909 1.03101 58.3581C0.76031 60.4464 1.09547 61.5292 2.33297 62.6765C3.94429 64.1718 6.90914 65.0741 11.0084 65.319C12.813 65.4351 16.3064 65.319 17.1701 65.1257C17.415 65.0741 17.9435 65.203 18.7943 65.4995C22.6873 66.8917 27.2892 67.562 32.9353 67.562C38.6459 67.562 43.5056 66.853 47.3084 65.4737C48.3654 65.087 48.4298 65.0741 49.4095 65.203C50.7244 65.3835 54.9267 65.3835 56.3963 65.203C61.7072 64.5456 64.6849 62.7409 64.9427 60.021C65.0201 59.1058 64.7752 57.1851 64.4271 56.0507C63.6279 53.4854 61.8232 51.0749 59.5673 49.6054C59.0388 49.2573 58.5619 48.948 58.4974 48.9351C58.433 48.9093 58.6134 48.5483 58.897 48.1229C59.722 46.8726 60.1087 45.5448 60.1216 43.9335C60.1345 41.2651 59.1162 39.28 57.0408 37.8878C55.7775 37.0499 54.6947 36.7019 53.0447 36.6245C51.5494 36.5472 50.5697 36.7405 49.242 37.3851C48.2107 37.8878 46.8701 39.1897 46.3416 40.2081L45.9806 40.93L44.8076 40.1308C44.163 39.7054 43.1705 39.1124 42.6033 38.8417C42.0361 38.5581 41.5462 38.3132 41.5205 38.3003C41.4947 38.2874 41.817 37.9007 42.2295 37.4624C43.5959 35.9929 44.5627 34.2784 45.1427 32.2546C45.4005 31.3651 45.4392 30.9397 45.4392 28.9159C45.4392 26.8792 45.4005 26.4667 45.1427 25.5772C44.524 23.4374 43.583 21.8003 42.0232 20.1632C40.2572 18.3069 38.2205 17.1468 35.7068 16.5409C34.6755 16.296 32.1619 16.1929 31.1693 16.3476ZM35.449 18.8741C38.2849 19.5831 40.8502 21.594 42.2681 24.2108C43.1189 25.8093 43.4798 27.2144 43.4798 29.0448C43.4798 30.9526 43.2607 31.9323 42.4099 33.6855C41.0435 36.5085 38.633 38.4808 35.5134 39.3058C34.0826 39.6925 31.917 39.6925 30.4861 39.3058C24.1955 37.63 20.8181 30.9526 23.2802 25.0874C25.2783 20.3437 30.5634 17.6495 35.449 18.8741ZM14.4502 38.9835C15.4041 39.2671 16.113 39.7054 16.8091 40.453C17.5181 41.2136 18.1627 42.4382 17.9822 42.696C17.9048 42.7991 17.4021 43.3921 16.8349 44.0108C15.6748 45.3257 14.5275 47.0015 13.9087 48.3292L13.4705 49.2315L12.6326 49.1929C9.74508 49.0382 7.30875 46.0218 7.86304 43.2632C8.48179 40.105 11.5369 38.1198 14.4502 38.9835ZM54.2822 38.9835C56.2158 39.5636 57.6724 41.1749 58.0462 43.1729C58.5748 46.0218 56.2802 48.9737 53.3798 49.1929L52.4904 49.2573L52.3486 48.819C51.9877 47.7233 50.299 45.1968 48.765 43.4694C48.3138 42.9667 47.9529 42.4769 47.9529 42.3995C47.9529 42.3093 48.0689 42.0386 48.1978 41.7679C49.358 39.4862 51.9619 38.3003 54.2822 38.9835ZM42.3713 41.3167C46.3416 43.5468 49.6158 47.4655 51.1627 51.8354C52.0392 54.3233 52.4646 57.9198 52.0263 59.2218C51.0337 62.2124 46.0193 64.3651 38.0271 65.2288C36.0677 65.4351 29.6224 65.4351 27.7146 65.2288C19.9673 64.3522 15.3267 62.4573 13.8959 59.5569C13.638 59.0284 13.5994 58.7706 13.6123 57.5331C13.6509 54.0655 14.7982 50.4562 16.8478 47.3624C17.9693 45.6608 20.367 43.2503 22.0298 42.1417C23.6025 41.1104 25.5748 40.1437 26.1677 40.1437C26.4127 40.1437 27.1216 40.3628 27.7404 40.6206C29.3904 41.3296 30.6537 41.6261 32.4197 41.7034C33.5412 41.755 34.2888 41.7163 35.1783 41.5616C36.3384 41.3554 38.7361 40.5175 39.2259 40.1437C39.4322 39.9761 39.574 40.0019 40.3861 40.337C40.9017 40.5562 41.7912 40.9944 42.3713 41.3167ZM10.222 50.83C10.6216 51.0105 11.2275 51.1909 11.5755 51.2425C12.5681 51.3585 12.581 51.3714 12.2716 52.5187C11.5627 55.1483 11.3693 58.5644 11.8462 59.9308C12.1814 60.9233 12.6712 61.6581 13.5607 62.5218L14.3212 63.2694H12.7228C8.39156 63.2694 4.26656 62.0964 3.33843 60.6011C2.75836 59.6601 3.26109 56.953 4.39547 54.8905C5.14312 53.537 6.93492 51.7968 8.31422 51.062C8.8814 50.7526 9.38414 50.5077 9.42281 50.5077C9.47437 50.5077 9.83531 50.6495 10.222 50.83ZM57.5048 50.946C60.4826 52.4413 62.6224 55.6382 62.8673 58.9511C62.9189 59.7632 62.8931 60.0854 62.7384 60.3948C61.9134 61.9675 58.4845 63.0761 53.947 63.2179L51.6267 63.2952L52.3486 62.612C53.238 61.7612 53.7537 60.9878 54.1275 59.9952C54.6302 58.6417 54.4627 55.3675 53.7537 52.6476C53.6119 52.0804 53.4959 51.5519 53.4959 51.4745C53.4959 51.3714 53.7795 51.2683 54.1791 51.2167C54.54 51.178 55.1974 50.9976 55.6228 50.83C56.0482 50.6753 56.4607 50.5335 56.5252 50.5206C56.6025 50.5206 57.0408 50.7011 57.5048 50.946Z" fill="#232323"/>
</g>
<defs>
<clipPath id="clip0_357_28148">
<rect width="66" height="66" fill="white"/>
</clipPath>
</defs>
</svg>
