<svg width="66" height="66" viewBox="0 0 66 66" fill="none" xmlns="http://www.w3.org/2000/svg">
<circle cx="33" cy="33" r="33" fill="#F3D69A"/>
<g clip-path="url(#clip0_357_28157)">
<path d="M30.4222 13.1131C24.9659 14.0905 20.5085 17.5275 18.3174 22.4467C17.2433 24.8849 16.9963 26.2704 16.9211 30.3841L16.8567 33.5849H14.9341H13.0008L12.6893 33.8963L12.3778 34.2078V49.234C12.3778 65.8929 12.3241 64.6899 13.0759 65.8606C13.6667 66.7736 14.5045 67.4288 15.5356 67.7725C16.0189 67.9443 17.4904 67.9551 32.9999 67.9551C48.5095 67.9551 49.981 67.9443 50.4643 67.7725C51.4954 67.4288 52.3332 66.7736 52.9239 65.8606C53.6758 64.6899 53.6221 65.8929 53.6221 49.234V34.2078L53.3106 33.8963L52.9991 33.5849H51.0658H49.1432L49.0788 30.3841C49.0358 28.1178 48.9713 26.9256 48.8532 26.249C47.6288 19.6649 42.8062 14.692 36.2221 13.2312C35.1266 12.9842 31.5392 12.9198 30.4222 13.1131ZM35.1051 15.4868C40.8621 16.4212 45.4377 20.9108 46.4795 26.6786C46.5977 27.3123 46.6728 28.5904 46.7158 30.5989L46.7802 33.5849H45.6417H44.514L44.471 30.3841C44.428 27.3338 44.4173 27.1512 44.138 26.1201C43.0747 22.1567 40.0673 19.0742 36.2007 17.9679C32.1192 16.7971 27.8229 17.9142 24.8263 20.9323C23.4085 22.3501 22.3989 24.133 21.8618 26.1201C21.5826 27.1512 21.5718 27.3338 21.5289 30.3841L21.4859 33.5849H20.3581H19.2196L19.2841 30.5989C19.3485 27.3338 19.4774 26.3886 20.0144 24.7453C22.1196 18.4082 28.5855 14.4449 35.1051 15.4868ZM34.8473 20.0945C38.1984 20.8142 40.9051 23.3919 41.818 26.7752C42.0221 27.5164 42.0651 27.9782 42.108 30.5989L42.151 33.5849H32.9999H23.8489L23.8918 30.5989C23.9348 27.9782 23.9777 27.5164 24.1818 26.7752C25.084 23.4242 27.78 20.8249 31.1096 20.1053C31.9796 19.9119 33.9559 19.9119 34.8473 20.0945ZM51.2591 49.857C51.2591 62.1981 51.2376 63.8199 51.0873 64.1744C50.8725 64.7006 50.4428 65.141 49.9165 65.3881C49.5084 65.5814 48.821 65.5921 32.9999 65.5921C17.1789 65.5921 16.4915 65.5814 16.0833 65.3881C15.557 65.141 15.1274 64.7006 14.9126 64.1744C14.7622 63.8199 14.7407 62.1981 14.7407 49.857V35.9478H32.9999H51.2591V49.857Z" fill="#232323"/>
<path d="M31.7639 42.8757C28.3698 43.7994 27.2421 48.1065 29.7446 50.6198L30.228 51.0924L29.895 54.0783C29.4439 58.1061 29.4439 58.192 30.0991 58.6431C30.3246 58.8042 30.6898 58.8257 32.9991 58.8257C35.3083 58.8257 35.6735 58.8042 35.8991 58.6431C36.5542 58.192 36.5542 58.1061 36.1031 54.0783L35.7702 51.0924L36.2535 50.6198C38.0687 48.7939 38.0794 45.8724 36.2643 44.068C35.1043 42.908 33.3535 42.4461 31.7639 42.8757ZM34.1376 45.4535C34.8035 45.8402 35.2009 46.5598 35.1902 47.3331C35.1794 48.2246 35.0076 48.4717 33.7187 49.5457C33.5576 49.6746 33.4072 49.9216 33.3643 50.0828C33.2891 50.3513 33.7724 55.5283 33.9335 56.2157C33.9872 56.4627 33.9657 56.4627 32.9991 56.4627C32.0324 56.4627 32.0109 56.4627 32.0646 56.2157C32.2257 55.5283 32.7091 50.3513 32.6339 50.0828C32.5909 49.9216 32.4406 49.6746 32.2795 49.5457C30.9906 48.4717 30.8187 48.2246 30.808 47.3331C30.7865 45.6146 32.6339 44.5728 34.1376 45.4535Z" fill="#232323"/>
</g>
<defs>
<clipPath id="clip0_357_28157">
<rect width="66" height="66" fill="white"/>
</clipPath>
</defs>
</svg>
