<svg width="66" height="66" viewBox="0 0 66 66" fill="none" xmlns="http://www.w3.org/2000/svg">
<circle cx="33" cy="33" r="33" fill="#F3D69A"/>
<g clip-path="url(#clip0_357_28191)">
<path d="M28.1126 4.24498C27.7774 4.58024 27.7774 4.92839 28.0998 7.04309C28.9379 12.4846 28.6542 17.0493 27.4034 18.3774C27.0295 18.7771 26.9006 18.8287 26.3461 18.8287C25.7014 18.8287 24.4377 18.3129 23.5222 17.6811C23.1483 17.4232 22.5164 17.3329 22.1167 17.4877C21.8459 17.5908 20.3115 19.6282 19.4088 21.0723C17.8486 23.561 16.5849 26.6944 16.1723 29.1314C15.9144 30.6659 15.9015 33.2706 16.1594 34.5858C16.2626 35.1274 16.4947 35.9913 16.6752 36.5071C16.8557 37.0229 16.9718 37.4871 16.9331 37.5516C16.8041 37.7708 15.4244 37.6547 14.8571 37.3839C14.1608 37.0487 13.1808 35.9784 12.5747 34.8953C12.3168 34.444 12.0203 34.0314 11.9042 33.9927C11.4916 33.8379 10.8211 33.9153 10.589 34.1474C10.2924 34.444 9.90556 35.8366 9.32531 38.6863C8.46138 42.877 8.30664 44.3212 8.30664 48.1638C8.30664 51.2971 8.33243 51.7871 8.60321 53.1282C9.27373 56.4034 10.46 59.1628 12.2266 61.5225C15.5405 65.9324 20.4404 68.5758 27.4034 69.7105C29.1442 69.9813 34.676 70.0974 36.8294 69.904C43.1477 69.3108 48.4473 67.0801 52.0062 63.5212C54.8301 60.6973 56.5193 57.4478 57.3832 53.1926C57.7314 51.4261 57.8732 46.6035 57.6411 43.9473C57.2414 39.4213 56.1712 34.3408 54.9204 31.0914C54.4949 29.9825 54.2886 29.7891 53.6051 29.7891C52.9346 29.7891 52.7412 30.0212 52.4704 31.1301C52.3286 31.6845 52.0965 32.3293 51.9675 32.5485C51.5807 33.1674 50.3041 34.3021 49.9947 34.3021C49.9431 34.3021 49.9302 33.5027 49.9818 32.5227C50.3428 24.5023 46.9774 16.5722 40.904 11.1564C38.2091 8.74517 35.8494 7.18493 32.1228 5.32812C29.3505 3.9484 28.6155 3.74209 28.1126 4.24498ZM32.5484 8.02308C40.4527 12.3041 45.2753 18.1195 47.1063 25.5467C47.7381 28.1128 47.9702 31.4138 47.6994 33.6574C47.39 36.159 47.39 36.4426 47.6866 36.7392C48.4731 37.5258 51.6968 36.3395 53.1023 34.7406L53.6051 34.1732L53.8759 35.1661C54.4949 37.4871 54.9462 39.8726 55.333 42.8125C55.4362 43.5475 55.5006 45.5204 55.5006 47.7769C55.5006 51.2069 55.4748 51.6324 55.2041 52.8703C54.3788 56.6484 52.9346 59.3691 50.4718 61.8449C47.2352 65.0814 42.6706 67.0414 36.8036 67.699C35.1531 67.8795 30.8592 67.8795 29.1958 67.699C23.3932 67.0543 18.7383 65.0685 15.5276 61.8449C13.0518 59.3562 11.6205 56.6355 10.7953 52.8703C10.5374 51.6453 10.4987 51.1811 10.5116 48.1638C10.5116 44.592 10.6277 43.5088 11.4142 39.46L11.7495 37.7192L12.4071 38.351C12.781 38.6992 13.4516 39.1634 13.9158 39.3826C14.7023 39.7565 14.8442 39.7823 16.1723 39.7823C17.4231 39.7694 17.6681 39.7307 18.3257 39.4342C19.7699 38.7636 19.873 38.3768 19.0865 36.5587C18.3902 34.934 18.1194 33.6316 18.1323 31.9166C18.1323 30.1888 18.287 29.2733 18.9059 27.3391C19.6023 25.1599 21.2399 22.0652 22.6712 20.2471L22.9161 19.9247L23.419 20.2084C24.7343 20.9434 26.4493 21.2142 27.6098 20.866C28.2803 20.6726 29.2474 19.7958 29.6729 18.9963C30.4852 17.5135 30.8979 14.8056 30.756 11.8012C30.6787 10.0346 30.4981 8.03597 30.3434 7.31388C30.266 6.96572 30.2918 6.95283 30.5626 7.0302C30.7302 7.08178 31.6329 7.52019 32.5484 8.02308Z" fill="#232323"/>
<path d="M26.1906 40.3758C24.6948 40.9561 23.7148 42.4776 23.7148 44.2313C23.7148 45.9076 24.5401 47.2744 25.9714 47.9707C26.8998 48.4349 28.4085 48.4865 29.4271 48.0997C32.8055 46.836 32.8184 41.6395 29.4529 40.3758C28.4987 40.0148 27.1319 40.0148 26.1906 40.3758ZM28.8469 42.555C30.5232 43.5737 29.8011 46.1655 27.8411 46.1655C26.7451 46.1655 25.9069 45.3273 25.9069 44.2313C25.9069 42.7355 27.5703 41.7813 28.8469 42.555Z" fill="#232323"/>
<path d="M32.1994 48.5893L23.7148 57.061V57.6155C23.7148 58.3376 24.0501 58.6729 24.7722 58.6729H25.3267L33.7984 50.1882L42.283 41.7165V41.1621C42.283 40.7881 42.2056 40.5431 42.0251 40.3626C41.8446 40.1821 41.5996 40.1047 41.2256 40.1047H40.6712L32.1994 48.5893Z" fill="#232323"/>
<path d="M36.507 50.6913C35.0112 51.2715 34.0312 52.7931 34.0312 54.5467C34.0312 56.223 34.8565 57.5898 36.2878 58.2861C37.2162 58.7503 38.7249 58.8019 39.7435 58.4151C43.1219 57.1514 43.1348 51.9549 39.7693 50.6913C38.8151 50.3302 37.4483 50.3302 36.507 50.6913ZM39.1633 52.8704C40.8396 53.8891 40.1175 56.4809 38.1575 56.4809C36.1975 56.4809 35.4754 53.8891 37.1517 52.8704C37.7062 52.5352 38.6088 52.5352 39.1633 52.8704Z" fill="#232323"/>
</g>
<defs>
<clipPath id="clip0_357_28191">
<rect width="66" height="66" fill="white"/>
</clipPath>
</defs>
</svg>
