<svg width="19" height="19" viewBox="0 0 19 19" fill="none" xmlns="http://www.w3.org/2000/svg">
<g clip-path="url(#clip0_357_26108)">
<mask id="mask0_357_26108" style="mask-type:luminance" maskUnits="userSpaceOnUse" x="0" y="0" width="19" height="19">
<path d="M3.90278 12.9663C2.46986 13.3962 1.58398 13.9899 1.58398 14.6458C1.58398 15.9576 5.12828 17.0208 9.50065 17.0208C13.873 17.0208 17.4173 15.9576 17.4173 14.6458C17.4173 13.9899 16.531 13.3962 15.0985 12.9663" stroke="white" stroke-width="2" stroke-linecap="round" stroke-linejoin="round"/>
<path d="M9.5013 13.8541C9.5013 13.8541 14.6471 10.4911 14.6471 6.60327C14.6471 3.83085 12.3434 1.58331 9.5013 1.58331C6.65922 1.58331 4.35547 3.83085 4.35547 6.60327C4.35547 10.4911 9.5013 13.8541 9.5013 13.8541Z" fill="white" stroke="white" stroke-width="2" stroke-linejoin="round"/>
<path d="M9.50065 8.70833C10.0256 8.70833 10.529 8.49981 10.9001 8.12865C11.2713 7.75748 11.4798 7.25407 11.4798 6.72917C11.4798 6.20426 11.2713 5.70085 10.9001 5.32968C10.529 4.95852 10.0256 4.75 9.50065 4.75C8.97574 4.75 8.47233 4.95852 8.10117 5.32968C7.73 5.70085 7.52148 6.20426 7.52148 6.72917C7.52148 7.25407 7.73 7.75748 8.10117 8.12865C8.47233 8.49981 8.97574 8.70833 9.50065 8.70833Z" fill="black" stroke="black" stroke-width="2" stroke-linejoin="round"/>
</mask>
<g mask="url(#mask0_357_26108)">
<path d="M0 0H19V19H0V0Z" fill="url(#paint0_linear_357_26108)"/>
</g>
</g>
<defs>
<linearGradient id="paint0_linear_357_26108" x1="9.5" y1="0" x2="9.5" y2="19" gradientUnits="userSpaceOnUse">
<stop stop-color="#DBBA76"/>
<stop offset="1" stop-color="#F3D69A"/>
</linearGradient>
<clipPath id="clip0_357_26108">
<rect width="19" height="19" fill="white"/>
</clipPath>
</defs>
</svg>
