<svg width="66" height="66" viewBox="0 0 66 66" fill="none" xmlns="http://www.w3.org/2000/svg">
<ellipse cx="33" cy="32.6256" rx="33" ry="32.6256" fill="#F3D69A"/>
<path d="M30.2359 7.26243C29.8257 7.33001 28.7046 7.722 27.7476 8.1275C25.6011 9.04664 25.0952 9.08719 24.1245 8.42487C23.2085 7.8031 22.689 7.65442 21.4859 7.65442C20.5835 7.65442 20.3511 7.70848 19.7359 8.05992C19.3257 8.2897 18.7105 8.83037 18.314 9.30346L17.603 10.155H16.4273C15.0601 10.1685 14.3218 10.4389 13.4194 11.2499C12.7085 11.8852 12.271 12.6016 11.8335 13.8856C11.1773 15.778 11.0269 17.1162 11.0269 21.3064C11.0132 24.9829 11.0269 25.1992 11.3277 26.0507C11.6694 27.0375 12.271 28.0512 12.8726 28.673C13.2007 29.0244 13.2964 29.2677 13.4058 30.1598C13.4878 30.7546 13.7066 32.0657 13.898 33.0659C14.3902 35.5936 14.6362 37.5265 14.6362 38.8646C14.6362 40.3785 14.9507 42.4601 15.5386 44.7985C16.1538 47.2991 16.7554 49.0022 17.9448 51.5839C19.5444 55.0983 20.187 56.2202 21.1304 57.2339C22.648 58.856 24.1245 59.3966 26.6265 59.2344L28.0347 59.1533L28.4448 59.9508C29.0191 61.0862 29.3882 62.5325 29.4839 63.9518C29.5249 64.6141 29.5796 65.3035 29.6206 65.4792C29.7027 65.8982 30.2222 66.128 30.6187 65.9252C30.8784 65.7901 30.9058 65.6549 30.9058 64.6817C30.9058 63.2489 30.4546 61.0997 29.8804 59.7751C29.6206 59.1804 29.4292 58.6938 29.4429 58.6802C29.4566 58.6667 29.9351 58.491 30.4956 58.2747C34.6382 56.7203 39.0405 53.3817 41.5562 49.8943C42.4995 48.5697 43.7847 46.0961 44.0581 45.0688C44.1675 44.6498 44.2905 44.42 44.4273 44.42C44.5503 44.42 44.7827 44.3795 44.9605 44.3389L45.2612 44.2578V46.4611C45.2612 51.8002 45.9722 58.0314 46.9702 61.3566C47.23 62.2487 47.5991 62.546 48.1187 62.2757C48.4878 62.0729 48.4878 61.7621 48.064 60.14C47.2027 56.7203 46.6284 51.2595 46.6284 46.2313V44.0416L47.0523 43.9605C47.8862 43.7983 49.2944 43.0008 50.0737 42.2438C51.0718 41.2842 51.7554 39.919 51.9878 38.4321C52.1929 37.0669 51.9878 35.2151 51.4819 33.9716C51.1538 33.1606 51.1402 33.0524 51.3316 32.7686C51.4409 32.5929 51.728 31.89 51.9605 31.1871C53.1636 27.6322 53.3823 23.3609 52.48 21.2793C52.0152 20.198 50.4155 18.8598 47.6948 17.2513C46.1226 16.3322 46.1773 16.4133 46.0816 14.602C45.9859 12.8854 45.8355 12.3988 45.1382 11.6689C44.7417 11.2364 44.0855 10.8714 43.2788 10.6281C42.9644 10.5335 41.3237 10.4254 39.437 10.3713C35.6499 10.2632 35.7456 10.2902 34.8843 9.01961C34.1734 8.00585 33.6538 7.57331 32.7925 7.31649C32.0269 7.10023 31.3706 7.08671 30.2359 7.26243ZM32.6284 8.72224C33.0386 8.89796 33.3667 9.22236 33.7495 9.77655C34.9527 11.5067 35.1304 11.5743 39.314 11.7094C41.1734 11.777 42.8277 11.8852 43.1421 11.9798C43.7984 12.1825 44.5093 12.8854 44.6323 13.4666C44.6734 13.7099 44.7144 14.3993 44.7144 15.0075C44.728 16.8593 45.0425 17.2919 47.5171 18.7382C49.814 20.0898 50.9898 21.1306 51.3452 22.1174C52.0288 23.9692 51.523 28.9839 50.4155 31.471L50.0737 32.2279L49.3902 32.0522C47.9819 31.6872 46.1226 32.2144 44.7554 33.3633C43.5249 34.3771 42.978 34.5528 40.9136 34.5528C39.1773 34.5528 39.0816 34.5393 38.7671 34.2284C38.2612 33.7283 38.1245 32.9443 38.0152 30.0923C37.9194 27.3348 37.8648 27.0645 37.1265 25.6317C36.6753 24.7667 35.5679 23.5637 34.7749 23.1041C33.8589 22.5769 33.0112 22.5634 31.1792 23.05C28.896 23.6448 26.9273 23.8881 24.0562 23.9151L21.5405 23.9421L20.5972 23.3609C19.4214 22.658 18.8472 22.6175 17.8491 23.1852C16.8237 23.7664 15.9624 24.7667 15.2105 26.267C14.8277 26.9969 14.4175 27.6863 14.2944 27.7944C14.0757 27.9701 14.0073 27.9431 13.6519 27.5241C13.105 26.8753 12.6402 25.848 12.4624 24.9018C12.271 23.861 12.271 19.4816 12.4624 17.5892C12.7769 14.4804 13.6382 12.4394 14.9234 11.777C15.3472 11.5472 16.687 11.358 16.687 11.5202C16.687 11.6824 15.9761 12.3853 15.812 12.3853C15.5659 12.3853 15.1831 12.8313 15.1831 13.1287C15.1831 13.5342 15.4429 13.737 15.9624 13.737C16.5503 13.737 17.3159 13.0476 18.2319 11.7094C19.8179 9.38456 20.2827 9.00609 21.6499 9.00609C22.4702 9.00609 22.6069 9.04664 23.3999 9.5738C24.1519 10.0739 24.3843 10.155 25.1636 10.1956C26.0933 10.2496 26.2573 10.2091 28.9644 9.07368C30.4956 8.43839 31.7261 8.31674 32.6284 8.72224ZM34.0366 24.2665C34.9663 24.7396 35.896 25.9561 36.3745 27.3348C36.5933 27.9431 36.648 28.4702 36.648 29.876C36.6616 33.147 37.0581 34.6609 38.0972 35.4449L38.603 35.8369H40.9409C43.2105 35.8369 43.3062 35.8234 44.0444 35.4584C44.4683 35.2557 45.0835 34.8502 45.4116 34.5663C46.1909 33.8905 47.0386 33.4715 47.8999 33.3363C49.6226 33.0659 50.4566 34.0121 50.6753 36.4857C50.9487 39.6757 49.3491 42.0141 46.3823 42.7169C45.9585 42.8251 45.3706 42.9467 45.0835 42.9873L44.564 43.0548L44.6597 41.6626C44.7554 40.3109 44.7417 40.2704 44.4273 40.0541C43.771 39.5946 43.3472 39.9325 43.3472 40.9057C43.3472 42.8115 42.6909 45.2851 41.6929 47.1234C39.7105 50.7594 36.0874 54.1116 31.8902 56.1796C28.4995 57.8557 25.5601 58.3558 23.7691 57.5583C23.0171 57.2339 22.0191 56.3554 21.4312 55.5173C20.8433 54.6658 18.6968 50.0971 17.9722 48.1372C16.8511 45.1229 16.0034 41.176 16.0034 38.9322C16.0034 37.4589 15.7984 35.8639 15.2515 32.8632C14.5952 29.2948 14.5952 29.4299 15.2788 28.7C15.5933 28.3621 16.1675 27.4835 16.5366 26.7401C17.0288 25.7669 17.398 25.2397 17.8628 24.8342C18.6694 24.1314 19.0659 24.0232 19.6128 24.3476C21.3765 25.3749 21.0073 25.2938 23.7964 25.2803C27.146 25.2533 29.9077 24.9018 31.9995 24.226C32.8609 23.9556 33.4351 23.9692 34.0366 24.2665Z" fill="#232323"/>
<path d="M17.8491 28.7001C17.1518 28.8488 16.3999 29.2002 16.2632 29.43C15.9214 30.0788 16.5913 30.5519 17.4116 30.214C17.6714 30.0923 18.355 30.0248 19.1616 30.0248C20.3647 30.0248 20.5425 30.0518 21.3354 30.4573C22.3745 30.998 22.4975 30.998 22.7846 30.5654C22.9897 30.2545 22.9897 30.2005 22.771 29.8761C22.2104 29.011 19.4487 28.3622 17.8491 28.7001Z" fill="#232323"/>
<path d="M30.0459 28.7676C29.0205 28.8893 27.9131 29.3083 27.5576 29.6868C27.2705 29.9977 27.3389 30.4843 27.6943 30.7141C27.9268 30.8627 28.0771 30.8357 28.6924 30.5383C29.9092 29.9706 31.9053 29.876 32.8213 30.3626C33.8193 30.8898 34.5713 29.8625 33.6143 29.2813C32.7666 28.7676 31.4951 28.5784 30.0459 28.7676Z" fill="#232323"/>
<path d="M20.5303 34.2961C20.1748 34.6746 20.0517 35.2828 20.1338 36.256C20.1885 36.8372 20.2842 37.0805 20.5576 37.3644C20.9951 37.7969 21.2685 37.7023 21.6513 36.9724C21.9931 36.3506 21.9111 34.9719 21.5146 34.4583C21.1592 33.9717 20.8857 33.9311 20.5303 34.2961Z" fill="#232323"/>
<path d="M30.2227 34.3502C29.9219 34.6746 29.8809 34.8233 29.8809 35.8506C29.8809 36.9049 29.9082 36.9995 30.2637 37.3509C30.7012 37.797 30.9746 37.7024 31.3574 36.9724C31.8496 36.0533 31.4531 34.1745 30.7422 34.0393C30.6465 34.0258 30.4004 34.161 30.2227 34.3502Z" fill="#232323"/>
<path d="M46.0143 35.2558C45.4674 35.5531 45.3991 35.9046 45.7956 36.2966C46.0006 36.4993 46.1784 36.5399 46.6022 36.4858C47.3405 36.3912 47.6413 36.5939 48.0514 37.4455C48.4206 38.2295 48.7623 38.4457 49.2272 38.2024C49.9381 37.824 49.1178 35.9586 47.9967 35.3909C47.3405 35.0665 46.4518 35.0125 46.0143 35.2558Z" fill="#232323"/>
<path d="M23.6043 37.4724C23.4812 37.5805 23.3855 37.8103 23.3855 37.9725C23.3855 38.1212 22.9891 39.0133 22.5105 39.9595C21.5125 41.8924 21.1297 43.0143 21.2527 43.6766C21.4031 44.4606 22.0457 45.1634 23.0711 45.6636C23.9598 46.0961 24.0555 46.1096 25.573 46.1096C27.5008 46.0961 28.1707 45.8798 28.1707 45.2581C28.1707 44.6093 27.9109 44.5011 26.8308 44.6904C24.4246 45.1229 22.3191 44.2578 22.6199 42.9467C22.6746 42.7575 23.1394 41.7437 23.6726 40.7029C24.657 38.77 24.9305 37.8374 24.616 37.4589C24.3973 37.1885 23.8777 37.2021 23.6043 37.4724Z" fill="#232323"/>
<path d="M46.7111 37.5128C46.2326 38.04 46.2736 40.1486 46.7795 40.6487C47.0666 40.9326 47.2716 40.9596 47.5861 40.7704C47.7365 40.6758 47.7912 40.3108 47.8048 39.1213C47.8048 38.2833 47.7502 37.5128 47.6818 37.4182C47.4904 37.1749 46.9845 37.2155 46.7111 37.5128Z" fill="#232323"/>
<path d="M23.0981 48.7588C22.8383 49.2454 23.1391 49.6238 24.0004 49.9482C25.7915 50.6106 28.0473 50.6106 30.2485 49.9212C31.2329 49.6238 31.2465 49.5968 31.2465 49.1643C31.2465 48.4344 30.9868 48.3803 29.4555 48.7588C27.6782 49.1913 25.8735 49.1913 24.6567 48.7723C23.5903 48.4073 23.3032 48.3938 23.0981 48.7588Z" fill="#232323"/>
</svg>
