<svg width="21" height="22" viewBox="0 0 21 22" fill="none" xmlns="http://www.w3.org/2000/svg">
<path d="M4.84004 3.71611C4.35195 3.84736 4.01152 4.13037 3.78594 4.59385L3.63008 4.90557L3.61777 7.00967L3.60547 9.11377H4.2002H4.79082L4.80723 8.09658C4.82363 7.21475 4.83594 7.05889 4.90156 6.88662C5.08203 6.43955 5.49629 6.054 5.94336 5.91455C6.17715 5.84072 6.3207 5.83252 7.53066 5.83252C8.76934 5.83252 8.88008 5.83662 9.11387 5.91865C9.58965 6.07861 9.95059 6.41904 10.1352 6.88662C10.2254 7.10811 10.2336 7.19834 10.2459 8.11709L10.2623 9.11377H10.5002H10.7381L10.7545 8.11709C10.7668 7.19834 10.775 7.10811 10.8652 6.88662C11.0498 6.41904 11.4107 6.07861 11.8865 5.91865C12.1203 5.83662 12.2311 5.83252 13.4656 5.83252C14.9258 5.83252 15.0611 5.84893 15.4303 6.08682C15.6969 6.25498 15.902 6.49287 16.0537 6.81279L16.1809 7.0835L16.1932 8.09658L16.2096 9.11377H16.8002H17.3949L17.3826 7.00967L17.3703 4.90557L17.2145 4.59385C16.9848 4.12217 16.5992 3.81455 16.1111 3.69971C15.8322 3.63818 5.07383 3.65049 4.84004 3.71611Z" fill="#F3D69A"/>
<path d="M6.0457 6.5667C5.95547 6.60771 5.81191 6.71025 5.72988 6.79639C5.48379 7.04658 5.45508 7.20244 5.45508 8.21963V9.11377L7.51816 9.10557L9.57715 9.09326V8.1499C9.57715 7.25576 9.57305 7.19834 9.48691 7.03838C9.37207 6.8251 9.09727 6.58311 8.90449 6.52979C8.82246 6.50518 8.20312 6.48877 7.48535 6.48877C6.33691 6.48877 6.19746 6.49697 6.0457 6.5667Z" fill="#F3D69A"/>
<path d="M12.0781 6.53389C11.9018 6.58311 11.6187 6.8333 11.5121 7.03838C11.426 7.19834 11.4219 7.25576 11.4219 8.1499V9.09326L13.485 9.10557L15.548 9.11377L15.5357 8.16221C15.5234 7.10811 15.5111 7.04658 15.2445 6.77588C14.9738 6.49697 14.9328 6.48877 13.4932 6.49287C12.7836 6.49287 12.1437 6.51338 12.0781 6.53389Z" fill="#F3D69A"/>
<path d="M8.18262 9.76592C3.22793 9.79053 3.13359 9.79053 2.90801 9.87666C2.38301 10.0653 1.8375 10.5247 1.5873 10.9882C1.35352 11.4229 1.3125 11.7183 1.3125 12.9159V13.9946H10.5H19.6875V12.9159C19.6875 11.9726 19.6752 11.7921 19.6055 11.5173C19.4947 11.0743 19.3471 10.8241 18.9902 10.4632C18.6498 10.1146 18.3299 9.92998 17.9156 9.83154C17.5711 9.75361 14.8559 9.73311 8.18262 9.76592Z" fill="#F3D69A"/>
<path d="M1.3125 15.1634C1.3125 15.713 1.34531 15.8442 1.50527 15.9181C1.64473 15.9837 19.3553 15.9837 19.4947 15.9181C19.6547 15.8442 19.6875 15.713 19.6875 15.1634V14.6507H10.5H1.3125V15.1634Z" fill="#F3D69A"/>
<path d="M2.46094 17.079C2.46094 17.6245 2.50195 17.8009 2.67422 17.9978C2.8834 18.2315 3.08848 18.3218 3.44531 18.3218C3.80625 18.3218 4.01953 18.2274 4.21641 17.9937C4.38457 17.7845 4.42969 17.5999 4.42969 17.0749V16.6196H3.44531H2.46094V17.079Z" fill="#F3D69A"/>
<path d="M16.5703 17.0871C16.5703 17.7639 16.6852 18.0182 17.083 18.2314C17.3168 18.3545 17.7926 18.3545 18.0305 18.2314C18.2479 18.1166 18.4406 17.8951 18.4939 17.6982C18.5186 17.6121 18.5391 17.3332 18.5391 17.0789V16.6195H17.5547H16.5703V17.0871Z" fill="#F3D69A"/>
</svg>
