<svg width="20" height="20" viewBox="0 0 20 20" fill="none" xmlns="http://www.w3.org/2000/svg">
<path d="M5.25433 1.34766C5.19574 1.40234 5.15668 1.48828 5.15668 1.55078C5.15668 1.60938 5.28168 1.92188 5.43793 2.23828L5.71918 2.81641L5.19183 3.34375L4.66058 3.875L3.3559 4.19922C2.33246 4.45703 2.03558 4.54297 1.9848 4.60938C1.89496 4.72266 1.23871 6.70703 1.25824 6.80859C1.28168 6.92969 2.59418 8.88672 2.70355 8.96094C2.75043 8.99609 2.82074 9.02344 2.8559 9.02344C2.89105 9.02344 3.1684 8.90234 3.47308 8.75L4.02386 8.47656L4.28168 8.99609C4.4223 9.27734 4.56683 9.54297 4.60199 9.57812C4.71918 9.71094 4.89105 9.66406 5.62543 9.29688C6.01215 9.10156 6.34418 8.91406 6.36761 8.87109C6.39105 8.82812 6.40668 8.53516 6.40668 8.1875V7.57812L7.20746 7.04297L8.01215 6.50781L8.39886 6.89453C8.61371 7.10938 8.78949 7.29688 8.78949 7.3125C8.78949 7.32812 8.57855 7.44922 8.32465 7.57812C8.06683 7.70312 7.82855 7.85156 7.7973 7.89844C7.75043 7.96484 7.7348 8.08594 7.7348 8.38281C7.7348 8.92969 7.7309 8.92578 8.51605 9.1875C8.8598 9.30078 9.14105 9.40234 9.14105 9.41406C9.14105 9.42969 9.01215 9.5 8.8598 9.57422C8.68011 9.65625 8.11371 10.0508 7.33246 10.6367C6.64496 11.1484 6.06293 11.5781 6.03558 11.5859C6.00824 11.5977 5.27386 11.4648 4.39886 11.2891C3.16058 11.043 2.7973 10.9805 2.7348 11.0156C2.6098 11.082 2.52777 11.2383 2.55511 11.3516C2.57074 11.4062 2.84418 11.8477 3.1684 12.332L3.75824 13.2109L3.57074 13.4023L3.38324 13.5938H2.7348C2.1059 13.5938 2.08246 13.5977 2.00043 13.6836C1.91449 13.7734 1.91449 13.7891 1.91449 15.1992V16.625L2.34027 17.043C2.59808 17.3008 2.7934 17.4609 2.84418 17.4609C2.94574 17.4609 4.25043 16.8164 4.36761 16.707C4.44183 16.6367 4.45355 16.5898 4.45355 16.3086V15.9922L4.69965 15.75C4.9223 15.5312 4.95746 15.5078 5.1098 15.5078H5.27386L5.58246 16.1211L5.89105 16.7383L6.43793 17.0078L6.9848 17.2812L6.71527 17.8203C6.56683 18.1172 6.44574 18.4023 6.44574 18.457C6.44574 18.5859 6.6098 18.75 6.73871 18.75C6.7934 18.75 7.44574 18.4453 8.19574 18.0703L9.55121 17.3906L10.2543 16.6836L10.9575 15.9766L10.9692 15.3164L10.9809 14.6602L11.0981 14.5469C11.1606 14.4883 11.2192 14.4453 11.227 14.457C11.2348 14.4648 11.3403 14.6758 11.4653 14.9219C11.6528 15.3047 11.7348 15.4219 12.0121 15.7031L12.3364 16.0352L12.6567 17.0039C12.9965 18.0273 13.0278 18.0859 13.2621 18.0859C13.3637 18.0859 13.4731 17.9922 14.0239 17.4414L14.6684 16.7969H14.9965H15.3246L15.6918 16.4375C16.0278 16.1055 16.0825 16.0312 16.352 15.5195L16.645 14.9609L17.1879 15.2344L17.7348 15.5078H18.1059C18.4965 15.5078 18.6801 15.457 18.727 15.332C18.7387 15.2969 18.7504 12.1562 18.7504 8.35547V1.44141L18.6528 1.34766L18.559 1.25H11.9536H5.34808L5.25433 1.34766ZM14.9028 3.80859C15.8403 4.00391 16.6176 4.78516 16.8207 5.74609C16.9496 6.35156 16.8168 6.92578 16.3168 7.95312C15.8403 8.92188 14.9496 10.3516 14.7153 10.5234C14.559 10.6367 14.1918 10.6367 14.0356 10.5234C13.8012 10.3516 12.9106 8.92188 12.434 7.95312C11.7973 6.64844 11.727 5.97266 12.1489 5.13281C12.6645 4.11328 13.7817 3.57422 14.9028 3.80859ZM12.4223 9.17969C12.5004 9.17969 12.6176 9.35547 12.6176 9.47266C12.6176 9.62891 12.5551 9.6875 12.1293 9.90625C11.7582 10.0977 11.6645 10.1055 11.5239 9.95312C11.4301 9.85156 11.4223 9.69922 11.5082 9.57422C11.5825 9.46875 12.2582 9.12891 12.3364 9.16016C12.3676 9.17188 12.4067 9.17969 12.4223 9.17969ZM16.8832 9.33984C17.3012 9.55078 17.3989 9.71484 17.227 9.93359C17.0942 10.1016 16.9926 10.0977 16.6176 9.90234C16.2075 9.69141 16.1332 9.62891 16.1332 9.48828C16.1332 9.32422 16.1723 9.25391 16.3051 9.19531C16.4496 9.13281 16.4926 9.14453 16.8832 9.33984ZM11.1879 10.5469C11.2739 10.6523 11.2817 10.6914 11.2621 10.8594C11.2348 11.1055 11.3207 11.3477 11.5278 11.5859C11.7817 11.8828 11.7075 12.1875 11.3793 12.1875C11.2582 12.1875 11.2075 12.1602 11.0668 12.0039C10.9731 11.9062 10.8403 11.707 10.77 11.5664C10.6567 11.3359 10.645 11.2773 10.645 10.9648C10.645 10.6328 10.6489 10.6133 10.7543 10.5234C10.9067 10.3906 11.0629 10.4023 11.1879 10.5469ZM18.0121 10.5312C18.0981 10.6211 18.1059 10.6641 18.1059 10.9727C18.1059 11.2734 18.0942 11.3359 17.9809 11.5664C17.9106 11.707 17.7778 11.9062 17.684 12.0039C17.4848 12.2188 17.3168 12.25 17.1606 12.1016C17.02 11.9688 17.0395 11.7969 17.2231 11.5859C17.4262 11.3516 17.5161 11.1094 17.4887 10.8711C17.4692 10.6797 17.5278 10.4961 17.6254 10.457C17.7582 10.4023 17.9184 10.4336 18.0121 10.5312ZM12.809 12.3047C12.9457 12.3477 13.2426 12.418 13.4692 12.457C13.9262 12.5391 14.0356 12.6094 14.0356 12.8164C14.0356 12.9062 14.0043 12.9688 13.9262 13.0391C13.8246 13.125 13.7934 13.1289 13.559 13.1055C13.1957 13.0664 12.4223 12.8672 12.3051 12.7812C12.2348 12.7266 12.2036 12.6641 12.1957 12.5508C12.184 12.418 12.1996 12.3789 12.2895 12.3086C12.4184 12.207 12.4926 12.207 12.809 12.3047ZM16.4731 12.3125C16.6293 12.4883 16.6137 12.6719 16.434 12.793C16.3129 12.8711 15.5278 13.0703 15.1957 13.1055C14.9692 13.1289 14.9301 13.1211 14.8325 13.0469C14.7504 12.9805 14.727 12.9297 14.727 12.8164C14.727 12.5977 14.8168 12.543 15.2817 12.457C15.5043 12.418 15.7895 12.3516 15.9184 12.3086C16.2387 12.207 16.3754 12.207 16.4731 12.3125Z" fill="white"/>
<path d="M14.0826 5.03516C13.7232 5.12891 13.4068 5.38672 13.2427 5.72266C13.1099 5.99219 13.106 6.49609 13.2349 6.75781C13.3677 7.03516 13.5279 7.20313 13.7974 7.34766C14.024 7.46875 14.0709 7.48047 14.3755 7.47656C14.6568 7.47656 14.7388 7.46094 14.9068 7.375C15.1998 7.21875 15.3248 7.10156 15.4732 6.82813C15.5943 6.60156 15.606 6.55469 15.606 6.25C15.606 5.94531 15.5943 5.89844 15.4732 5.67188C15.2505 5.26563 14.9107 5.04688 14.4576 5.01953C14.3169 5.01172 14.149 5.01563 14.0826 5.03516Z" fill="white"/>
</svg>
