<svg width="21" height="22" viewBox="0 0 21 22" fill="none" xmlns="http://www.w3.org/2000/svg">
<mask id="mask0_802_346" style="mask-type:luminance" maskUnits="userSpaceOnUse" x="0" y="1" width="21" height="20">
<path fill-rule="evenodd" clip-rule="evenodd" d="M5.15097 14.5803C5.28983 15.0432 5.02717 15.531 4.5643 15.6699C3.81793 15.8938 3.27779 16.143 2.94379 16.3799C2.71392 16.543 2.64793 16.6495 2.63007 16.6881C2.64794 16.7267 2.71394 16.8332 2.94383 16.9962C3.27786 17.2331 3.81798 17.4823 4.56419 17.7062C6.04547 18.1506 8.1443 18.4381 10.5 18.4381C12.8557 18.4381 14.9545 18.1506 16.4358 17.7062C17.182 17.4823 17.7221 17.2331 18.0562 16.9962C18.286 16.8332 18.352 16.7267 18.3699 16.6881C18.352 16.6495 18.286 16.543 18.0561 16.38C17.722 16.143 17.1818 15.8938 16.4356 15.6699C15.9728 15.531 15.7102 15.0431 15.849 14.5803C15.9879 14.1174 16.4758 13.8548 16.9386 13.9937C17.7758 14.2449 18.517 14.5614 19.0685 14.9525C19.5973 15.3276 20.125 15.9014 20.125 16.6881C20.125 17.4747 19.5974 18.0485 19.0686 18.4236C18.5171 18.8148 17.7759 19.1312 16.9387 19.3824C15.2531 19.888 12.9769 20.1881 10.5 20.1881C8.02308 20.1881 5.74691 19.888 4.06134 19.3824C3.22413 19.1312 2.48286 18.8148 1.93137 18.4236C1.40258 18.0485 0.875 17.4747 0.875 16.6881C0.875 15.9015 1.40245 15.3277 1.93128 14.9526C2.48277 14.5614 3.22407 14.2449 4.06145 13.9937C4.52431 13.8548 5.01211 14.1175 5.15097 14.5803Z" fill="white"/>
<path d="M10.5 15.813C10.5 15.813 16.1875 12.096 16.1875 7.79886C16.1875 4.73461 13.6413 2.25049 10.5 2.25049C7.35875 2.25049 4.8125 4.73461 4.8125 7.79886C4.8125 12.096 10.5 15.813 10.5 15.813Z" fill="white"/>
<path fill-rule="evenodd" clip-rule="evenodd" d="M3.9375 7.79886C3.9375 4.23108 6.89604 1.37549 10.5 1.37549C14.104 1.37549 17.0625 4.23108 17.0625 7.79886C17.0625 10.3077 15.4257 12.5272 13.9719 14.0265C13.2255 14.7963 12.4822 15.4221 11.9266 15.8552C11.6481 16.0723 11.4149 16.2423 11.2498 16.3592C11.1671 16.4177 11.1013 16.4629 11.0553 16.4942C11.0322 16.5098 11.0141 16.522 11.0012 16.5306L10.9859 16.5407L10.9812 16.5438L10.9791 16.5451C10.9789 16.5453 10.9787 16.5454 10.5 15.813C10.0213 16.5454 10.0211 16.5453 10.0209 16.5451L10.0188 16.5438L10.0141 16.5407L9.9988 16.5306C9.98592 16.522 9.96778 16.5098 9.94474 16.4942C9.89865 16.4629 9.83289 16.4177 9.75024 16.3592C9.58505 16.2423 9.35191 16.0723 9.07341 15.8552C8.51783 15.4221 7.77452 14.7963 7.02807 14.0265C5.57428 12.5272 3.9375 10.3077 3.9375 7.79886ZM10.5 15.813L10.0213 16.5454C10.3121 16.7355 10.6879 16.7355 10.9787 16.5454L10.5 15.813ZM10.5 14.7415C10.6039 14.6646 10.7217 14.5755 10.8507 14.4749C11.3616 14.0768 12.0401 13.5048 12.7156 12.8082C14.1055 11.3748 15.3125 9.58713 15.3125 7.79886C15.3125 5.23815 13.1785 3.12549 10.5 3.12549C7.82146 3.12549 5.6875 5.23815 5.6875 7.79886C5.6875 9.58713 6.89447 11.3748 8.28443 12.8082C8.95986 13.5048 9.63842 14.0768 10.1493 14.4749C10.2783 14.5755 10.3961 14.6646 10.5 14.7415Z" fill="white"/>
<path d="M10.5 10.1255C11.0802 10.1255 11.6366 9.89502 12.0468 9.48478C12.457 9.07455 12.6875 8.51815 12.6875 7.93799C12.6875 7.35783 12.457 6.80143 12.0468 6.39119C11.6366 5.98096 11.0802 5.75049 10.5 5.75049C9.91984 5.75049 9.36344 5.98096 8.9532 6.39119C8.54297 6.80143 8.3125 7.35783 8.3125 7.93799C8.3125 8.51815 8.54297 9.07455 8.9532 9.48478C9.36344 9.89502 9.91984 10.1255 10.5 10.1255Z" fill="black"/>
<path fill-rule="evenodd" clip-rule="evenodd" d="M8.33449 5.77247C8.90882 5.19814 9.68777 4.87549 10.5 4.87549C11.3122 4.87549 12.0912 5.19814 12.6655 5.77247C13.2398 6.3468 13.5625 7.12576 13.5625 7.93799C13.5625 8.75021 13.2398 9.52917 12.6655 10.1035C12.0912 10.6778 11.3122 11.0005 10.5 11.0005C9.68777 11.0005 8.90882 10.6778 8.33449 10.1035C7.76016 9.52917 7.4375 8.75021 7.4375 7.93799C7.4375 7.12576 7.76016 6.3468 8.33449 5.77247ZM10.5 6.62549C10.1519 6.62549 9.81806 6.76377 9.57192 7.00991C9.32578 7.25605 9.1875 7.58989 9.1875 7.93799C9.1875 8.28609 9.32578 8.61992 9.57192 8.86607C9.81806 9.11221 10.1519 9.25049 10.5 9.25049C10.8481 9.25049 11.1819 9.11221 11.4281 8.86607C11.6742 8.61992 11.8125 8.28609 11.8125 7.93799C11.8125 7.58989 11.6742 7.25605 11.4281 7.00991C11.1819 6.76377 10.8481 6.62549 10.5 6.62549Z" fill="black"/>
</mask>
<g mask="url(#mask0_802_346)">
<path d="M0 0.500488H21V21.5005H0V0.500488Z" fill="#F3D69A"/>
</g>
</svg>
