<svg width="21" height="22" viewBox="0 0 21 22" fill="none" xmlns="http://www.w3.org/2000/svg">
<g clip-path="url(#clip0_802_359)">
<path d="M13.5146 1.41947C13.2357 1.53841 0.20918 14.4706 0.0779297 14.7536C0.00820313 14.9095 0 15.0777 0 17.4812C0 19.8929 0.00820313 20.0529 0.0779297 20.2128C0.307617 20.7173 1.0377 20.7419 1.3166 20.2538L1.41504 20.0857L1.42734 17.7027L1.43965 15.3156L5.52891 11.2427C7.77656 8.99915 10.6805 6.12806 11.9766 4.85658C13.3875 3.47435 14.3719 2.47767 14.4293 2.37513C14.7451 1.81322 14.1135 1.15697 13.5146 1.41947Z" fill="#F3D69A"/>
<path d="M15.7623 4.69639C15.4916 4.79892 15.2742 4.9958 15.1512 5.24189L15.0322 5.48389L15.0199 6.96865L15.0076 8.44932L13.5229 8.46572L12.0381 8.47803L11.8043 8.59287C11.6689 8.65849 11.5172 8.77744 11.4434 8.86767C11.2055 9.17119 11.1973 9.22861 11.1973 10.8405V12.313H9.75762C8.88398 12.313 8.25234 12.3294 8.14981 12.3581C7.8709 12.4278 7.6125 12.6411 7.48125 12.9159L7.3623 13.1538L7.35 14.7206L7.3377 16.2915H5.80781C4.13027 16.2915 4.07695 16.2997 3.77344 16.5376C3.6873 16.6073 3.56836 16.7591 3.51094 16.8739L3.4043 17.0872V18.4694V19.8517L3.51914 20.069C3.64629 20.3151 3.90059 20.5325 4.13438 20.5981C4.23691 20.6269 6.87832 20.6392 12.2227 20.6392C20.1141 20.6392 20.1592 20.6351 20.3438 20.553C20.5693 20.4505 20.7744 20.2618 20.8893 20.0444L20.9795 19.8804L20.9918 12.7231C21 6.18935 20.9959 5.55361 20.9344 5.36904C20.8523 5.12705 20.6391 4.87685 20.4094 4.75381C20.2453 4.66357 20.2125 4.66357 18.0674 4.65537C16.4678 4.65127 15.8607 4.65947 15.7623 4.69639Z" fill="#F3D69A"/>
</g>
<defs>
<clipPath id="clip0_802_359">
<rect width="21" height="21" fill="white" transform="translate(0 0.500488)"/>
</clipPath>
</defs>
</svg>
