<svg width="21" height="22" viewBox="0 0 21 22" fill="none" xmlns="http://www.w3.org/2000/svg">
<g clip-path="url(#clip0_802_365)">
<path d="M0.676758 0.574318C0.479883 0.668653 0.39375 0.758888 0.307617 0.963966C0.254297 1.09521 0.246094 1.52178 0.246094 4.25342V7.39111H0.832617C1.51758 7.39111 1.68984 7.43213 1.89082 7.63311C2.22715 7.96533 2.18203 8.47393 1.79238 8.76104C1.68574 8.83897 1.61191 8.84717 0.959766 8.85947L0.246094 8.87178V9.60596V10.336L0.914648 10.3524C1.64473 10.3688 1.74316 10.3976 1.94414 10.6313C2.22305 10.9636 2.15332 11.4435 1.79238 11.7142C1.68984 11.7921 1.60371 11.8044 0.97207 11.8208L0.266602 11.8413V12.7026V13.564L0.97207 13.5845C1.60371 13.6009 1.68984 13.6132 1.79238 13.6911C2.15332 13.9618 2.22305 14.4417 1.94414 14.7739C1.74727 15.0077 1.64473 15.0323 0.914648 15.0528L0.246094 15.0692V15.7829V16.4966H0.890039C1.46016 16.4966 1.55449 16.5048 1.71445 16.5827C2.24766 16.8411 2.24355 17.6491 1.71035 17.8952C1.5627 17.9608 1.43965 17.9731 0.894141 17.9731H0.246094V19.4292C0.246094 20.6474 0.258398 20.914 0.307617 21.037C0.39375 21.2421 0.479883 21.3323 0.676758 21.4226C0.832617 21.4964 1.21406 21.5005 10.5 21.5005C19.8146 21.5005 20.1633 21.4964 20.3273 21.4226C20.7293 21.2421 20.8729 20.7253 20.6227 20.3726C20.4832 20.1798 1.5791 0.787598 1.39453 0.648146C1.18535 0.492287 0.906445 0.467676 0.676758 0.574318ZM7.6248 14.2489C8.84707 15.5286 9.84375 16.5868 9.84375 16.5991C9.84375 16.6114 8.83066 16.6196 7.58789 16.6196H5.33203V14.2571C5.33203 12.8585 5.34844 11.9028 5.36895 11.911C5.38945 11.9151 6.40664 12.9692 7.6248 14.2489Z" fill="#F3D69A"/>
</g>
<defs>
<clipPath id="clip0_802_365">
<rect width="21" height="21" fill="white" transform="translate(0 0.500488)"/>
</clipPath>
</defs>
</svg>
