<svg width="19" height="20" viewBox="0 0 19 20" fill="none" xmlns="http://www.w3.org/2000/svg">
<mask id="mask0_810_11424" style="mask-type:luminance" maskUnits="userSpaceOnUse" x="0" y="1" width="19" height="18">
<path d="M3.90278 13.4663C2.46986 13.8962 1.58398 14.4899 1.58398 15.1458C1.58398 16.4576 5.12828 17.5208 9.50065 17.5208C13.873 17.5208 17.4173 16.4576 17.4173 15.1458C17.4173 14.4899 16.531 13.8962 15.0985 13.4663" stroke="white" stroke-width="2" stroke-linecap="round" stroke-linejoin="round"/>
<path d="M9.5013 14.3543C9.5013 14.3543 14.6471 10.9913 14.6471 7.10345C14.6471 4.33104 12.3434 2.0835 9.5013 2.0835C6.65922 2.0835 4.35547 4.33104 4.35547 7.10345C4.35547 10.9913 9.5013 14.3543 9.5013 14.3543Z" fill="white" stroke="white" stroke-width="2" stroke-linejoin="round"/>
<path d="M9.50065 9.20833C10.0256 9.20833 10.529 8.99981 10.9001 8.62865C11.2713 8.25748 11.4798 7.75407 11.4798 7.22917C11.4798 6.70426 11.2713 6.20085 10.9001 5.82968C10.529 5.45852 10.0256 5.25 9.50065 5.25C8.97574 5.25 8.47233 5.45852 8.10117 5.82968C7.73 6.20085 7.52148 6.70426 7.52148 7.22917C7.52148 7.75407 7.73 8.25748 8.10117 8.62865C8.47233 8.99981 8.97574 9.20833 9.50065 9.20833Z" fill="black" stroke="black" stroke-width="2" stroke-linejoin="round"/>
</mask>
<g mask="url(#mask0_810_11424)">
<path d="M0 0.5H19V19.5H0V0.5Z" fill="#232323"/>
</g>
</svg>
