<svg width="66" height="66" viewBox="0 0 66 66" fill="none" xmlns="http://www.w3.org/2000/svg">
<ellipse cx="33" cy="32.6256" rx="33" ry="32.6256" fill="#F3D69A"/>
<circle cx="33" cy="33" r="33" fill="#F3D69A"/>
<path d="M37.9342 12.232C37.7971 12.3902 37.6811 12.7594 37.5967 13.2656C36.8057 18.2648 34.6647 23.3168 31.5006 27.6305C30.8889 28.4742 30.794 28.6535 30.7518 29.1492C30.6885 29.877 31.0577 30.5625 31.6799 30.8789C32.0702 31.0793 32.3022 31.0898 35.1498 31.0898H38.2084L38.2401 32.598C38.2717 34.0324 38.2823 34.1379 38.5565 34.5387C39.0522 35.298 39.3053 35.3613 42.0475 35.393L44.4416 35.4352V44.7586C44.4416 53.9133 44.4416 54.1031 44.6631 54.7359C45.0428 55.8645 45.7495 56.6871 46.9202 57.341C47.7639 57.8156 48.5022 58.7648 48.7764 59.693L48.8608 59.9883H43.3764H37.9026L37.9659 59.693C38.1979 58.7438 38.9573 57.8262 39.9909 57.225C41.1194 56.5816 41.8682 55.6219 42.1741 54.4406C42.3112 53.8922 42.3323 52.732 42.3112 45.8133L42.2795 37.8082L41.9948 37.5973C41.7416 37.4074 41.6784 37.4074 41.3936 37.5234C41.2143 37.5973 41.0561 37.6605 41.0455 37.6711C41.0245 37.6711 40.9928 41.3625 40.9612 45.8555C40.9084 53.8816 40.9084 54.0398 40.687 54.5145C40.3705 55.2 39.9065 55.6852 39.1049 56.1492C37.8604 56.877 36.9323 58.1109 36.6159 59.4293L36.4788 59.9883H35.4663C34.1584 59.9883 33.5362 60.1781 32.8612 60.7793C32.1123 61.4543 31.8698 62.0766 31.8065 63.4898L31.7538 64.6289H29.6549H27.5561L27.7459 64.2809C27.9147 63.975 27.9358 63.5215 27.9674 59.5242C27.9991 55.4953 27.978 55.0945 27.8198 54.9152C27.6616 54.7465 27.4823 54.7148 26.5225 54.7148C25.4889 54.7043 25.4256 54.6937 25.6155 54.5461C25.9846 54.2613 27.2819 53.6391 27.9358 53.4281C28.8955 53.1223 30.467 53.059 31.3108 53.291C31.9436 53.4598 32.0174 53.4598 32.26 53.3016C32.587 53.0801 32.6186 52.5211 32.3233 52.2469C31.7959 51.7723 29.7604 51.6035 28.3049 51.9094C26.7123 52.2469 24.6241 53.3438 23.6748 54.3352C23.4745 54.5461 23.2213 54.7148 23.1159 54.7148C22.8838 54.7148 22.8733 54.7676 23.2002 53.85C24.2655 50.8863 26.2905 48.6082 29.1803 47.1211C30.4565 46.4672 30.6569 45.9926 29.8659 45.5496C29.6127 45.402 29.5284 45.423 28.6741 45.8344C28.1573 46.0875 27.4084 46.5094 26.9971 46.7836C26.0163 47.427 24.5291 48.8613 23.7592 49.8949C23.1686 50.6859 21.9768 52.8902 21.9768 53.1855C21.9768 53.2699 21.9241 53.3648 21.8713 53.3965C21.7975 53.4387 21.7659 52.4789 21.7659 50.5805V47.7012L22.2721 47.5113C23.0104 47.2582 23.7381 46.5727 24.0967 45.8027C24.6135 44.7164 24.487 43.3348 23.7276 41.7949C23.3163 40.9723 22.5885 40.1707 21.9979 39.8859C21.133 39.4641 20.0573 39.7488 19.2346 40.6137C18.3276 41.5523 17.6631 43.4508 17.8002 44.727C17.9268 45.9609 18.8655 47.1844 19.9834 47.543L20.3948 47.6801L20.3842 50.591C20.3842 53.1223 20.3631 53.4492 20.2366 53.1223C19.9729 52.3945 19.2241 50.9918 18.6756 50.1902C18.0112 49.2094 16.4819 47.659 15.501 46.9734C14.6889 46.3934 12.8643 45.4336 12.5901 45.4336C12.2842 45.4336 11.9256 45.7922 11.9256 46.098C11.9256 46.5094 12.1049 46.6676 13.0541 47.1422C15.8385 48.5344 18.0428 51.0234 19.0131 53.85C19.1291 54.2086 19.2346 54.5566 19.2346 54.6094C19.2346 54.8203 18.9815 54.7043 18.4014 54.2086C17.083 53.0695 15.6381 52.3207 14.1194 51.9621C12.1893 51.5191 9.86899 51.825 9.68969 52.5316C9.60531 52.848 9.77406 53.1855 10.0694 53.3543C10.2487 53.4387 10.428 53.4281 10.8815 53.291C11.683 53.0379 13.2862 53.1223 14.4041 53.4809C15.1846 53.734 16.5241 54.409 16.6506 54.6094C16.6928 54.6727 16.3131 54.7148 15.6592 54.7148C14.035 54.7148 14.1721 54.3035 14.1721 59.2289C14.1721 63.3 14.1932 63.6164 14.5413 64.4391C14.6151 64.6184 14.5202 64.6289 13.4022 64.6289C12.2104 64.6289 12.1788 64.6395 11.9678 64.9031C11.6936 65.2512 11.6936 65.3777 11.9678 65.7258L12.1788 66H36.3838C60.4412 66 60.5784 66 60.7893 65.7891C61.0635 65.5148 61.0635 65.1141 60.7893 64.8398C60.5889 64.6395 60.4413 64.6289 57.7307 64.6289H54.8831V63.4793C54.8831 62.3824 54.862 62.298 54.535 61.6652C53.9233 60.4629 52.9846 59.9883 51.2338 59.9883H50.2635L50.1475 59.482C49.7995 58.1109 49.0295 57.0562 47.7639 56.2441C46.783 55.6008 46.435 55.2738 46.0975 54.6621L45.8655 54.2402L45.8338 44.843L45.8127 35.4457L46.4983 35.3824C47.226 35.3086 47.5108 35.2031 47.901 34.8445C48.344 34.4543 48.3967 34.2434 48.4495 32.6719L48.5022 31.1426L49.8522 31.1109L51.1916 31.0793V36.8273V42.5648L50.6327 42.8813C49.4198 43.5668 48.9557 44.9906 49.5463 46.2246C50.0315 47.2477 50.8225 47.7539 51.951 47.7539C52.8053 47.7434 53.3432 47.5008 53.9022 46.8785C54.651 46.0242 54.7776 44.7691 54.1975 43.7988C53.9549 43.3664 53.301 42.8285 52.858 42.6598C52.6788 42.5965 52.6682 42.2273 52.6682 36.8379V31.0898H53.6702C55.0202 31.0898 55.4948 30.8262 55.885 29.8875C56.1698 29.223 56.0327 28.6957 55.3155 27.7465C52.1409 23.4434 50.0526 18.6445 49.1877 13.6137C49.019 12.6434 48.9241 12.327 48.7553 12.1793C48.5444 12.0105 48.133 12 43.3448 12H38.1452L37.9342 12.232ZM47.7639 13.6031C47.7955 13.7402 47.9432 14.4363 48.0909 15.1641C48.7553 18.3809 50.1053 21.9246 51.7506 24.7934C52.4045 25.943 53.3327 27.3668 54.3452 28.7801C54.6405 29.202 54.6721 29.3074 54.5772 29.4973L54.4506 29.7188H43.408C34.9495 29.7188 32.3233 29.6871 32.2284 29.5922C31.9963 29.3602 32.0913 29.1492 32.819 28.1684C35.7827 24.1289 37.9975 18.9926 38.8518 14.1305L38.9889 13.3711H43.3448H47.7112L47.7639 13.6031ZM47.0573 32.482L47.0256 33.8848L43.4397 33.9164C40.1596 33.9375 39.8432 33.927 39.7272 33.7582C39.6323 33.6422 39.5901 33.1676 39.5901 32.3344V31.0898H43.3342H47.0889L47.0573 32.482ZM21.808 41.3309C22.4303 41.816 23.0315 43.3031 23.0315 44.3578C23.0315 46.657 19.878 47.1105 19.2241 44.9062C18.9604 44.0414 19.4666 42.491 20.2893 41.5945C20.669 41.1832 20.7955 41.1094 21.133 41.1094C21.3756 41.1094 21.6393 41.1938 21.808 41.3309ZM52.4045 43.9992C53.0795 44.284 53.3748 45.0961 53.0373 45.75C52.6049 46.5832 51.2549 46.5832 50.8225 45.75C50.4955 45.1066 50.7803 44.2945 51.4342 44.0098C51.8666 43.8199 51.9616 43.8199 52.4045 43.9992ZM26.5963 59.8512C26.5647 64.1121 26.5858 63.9855 25.7104 64.418C25.3096 64.6184 25.0881 64.6289 21.1014 64.6289C16.4291 64.6289 16.4291 64.6289 15.9018 63.9328L15.5959 63.5426L15.5643 59.809L15.5327 56.0859H21.0803H26.628L26.5963 59.8512ZM52.7315 61.6336C53.3538 62.0977 53.4592 62.3402 53.4909 63.532L53.5331 64.6289H43.3975H33.262V63.5637C33.262 62.298 33.4202 61.9289 34.1373 61.5809C34.5803 61.3594 34.6225 61.3594 43.5135 61.3805C52.3413 61.4121 52.4467 61.4121 52.7315 61.6336Z" fill="#232323"/>
<path d="M10.0587 15.1324C9.84773 15.4066 9.83718 15.491 9.86882 18.4125C9.90046 21.2285 9.91101 21.4078 10.1009 21.5555C10.2696 21.6715 10.9024 21.7031 13.3915 21.7031C16.4606 21.7031 16.4817 21.7031 16.6399 21.4711C16.7876 21.2707 16.8087 20.7855 16.8087 18.2543C16.8087 15.4066 16.7981 15.259 16.5977 15.0586C16.3973 14.8582 16.2497 14.8477 13.3387 14.8477H10.2801L10.0587 15.1324ZM15.4376 18.2754V20.332H13.3282H11.2188V18.2754V16.2188H13.3282H15.4376V18.2754Z" fill="#232323"/>
<path d="M18.3906 25.152C18.3063 25.1836 18.148 25.2785 18.0531 25.3734C17.8738 25.5211 17.8633 25.8375 17.8633 29.1598C17.8633 32.6402 17.8738 32.7879 18.0742 32.9883C18.2746 33.1887 18.4223 33.1992 21.85 33.1992C24.898 33.1992 25.4465 33.1781 25.6469 33.0305L25.8789 32.8723V29.2125C25.8789 27.198 25.8367 25.5 25.7945 25.4262C25.6047 25.1203 25.0668 25.0781 21.8395 25.0887C20.0254 25.0887 18.475 25.1203 18.3906 25.152ZM24.5078 29.1914V31.8281H21.8711H19.2344V29.1914V26.5547H21.8711H24.5078V29.1914Z" fill="#232323"/>
<path d="M7.21094 64.8398C7.09492 64.9559 7 65.1668 7 65.3145C7 65.8418 7.31641 66 8.41328 66C9.3625 66 9.42578 65.9895 9.62617 65.7258C9.90039 65.3777 9.90039 65.2512 9.62617 64.9031C9.42578 64.6395 9.3625 64.6289 8.41328 64.6289C7.55898 64.6289 7.39023 64.6605 7.21094 64.8398Z" fill="#232323"/>
</svg>
