<svg width="66" height="66" viewBox="0 0 66 66" fill="none" xmlns="http://www.w3.org/2000/svg">
<circle cx="33" cy="33" r="33" fill="#F3D69A"/>
<g clip-path="url(#clip0_357_27845)">
<path d="M17.019 11.0763C15.7094 11.3942 14.4633 12.6021 14.0945 13.9118L13.8911 14.6493H12.8739C11.6532 14.6493 10.903 14.9544 10.5088 15.5775C10.1782 16.1242 9.22461 19.6972 9.22461 20.3838C9.22461 21.4392 9.94937 22.1766 11.1446 22.3292C11.5261 22.3801 11.7676 22.4818 11.7676 22.5708C11.7676 22.7234 13.4333 35.5784 13.6113 36.8118C13.6495 37.0661 14.7303 45.331 16.0272 55.1598C17.7946 68.5362 18.4431 73.1772 18.6211 73.5841C18.9772 74.3725 19.8164 75.2371 20.6556 75.644L21.3676 76H33.002H44.6364L45.234 75.7203C45.5519 75.5804 46.0859 75.2117 46.4038 74.9192C47.5736 73.8384 47.3574 75.0336 49.9768 55.1471C51.2737 45.3183 52.3545 37.0661 52.3926 36.7991C52.5707 35.5784 54.2363 22.7234 54.2363 22.5708C54.2363 22.4818 54.4779 22.3801 54.8594 22.3292C56.0546 22.1766 56.7794 21.4392 56.7794 20.3838C56.7794 19.6972 55.8257 16.1242 55.4951 15.5775C55.101 14.9544 54.3508 14.6493 53.1301 14.6493H52.1002L51.9603 14.0389C51.6552 12.8691 50.9304 12.0045 49.6589 11.3306L49.0867 11.0254L33.2563 11C24.5464 11 17.2479 11.0254 17.019 11.0763ZM48.5399 13.2506C49.0231 13.3905 49.786 14.1279 49.786 14.4585C49.786 14.6238 47.6626 14.6493 33.002 14.6493C18.3414 14.6493 16.218 14.6238 16.218 14.4585C16.218 14.1534 16.9809 13.3905 17.4132 13.2633C17.9854 13.098 47.9423 13.0853 48.5399 13.2506ZM53.6642 16.9634C53.6896 16.9888 53.9058 17.7009 54.1473 18.5655L54.5924 20.1168H33.002H11.4243L11.8439 18.591C12.0728 17.7518 12.289 17.027 12.3144 16.9761C12.378 16.8871 53.5752 16.8744 53.6642 16.9634ZM52.0239 22.7488C51.9858 22.9523 51.6043 25.7878 51.1847 29.081C50.7651 32.3615 50.3836 35.1843 50.3455 35.3369L50.2946 35.6293H33.002H15.7094L15.6585 35.3369C15.6203 35.1843 15.2389 32.3615 14.8193 29.081C14.3997 25.7878 14.0182 22.9523 13.9801 22.7488L13.9038 22.4055H33.002H52.1002L52.0239 22.7488ZM49.9895 38.2613C49.9513 38.4648 49.341 43.0168 48.6417 48.4081C47.9296 53.7866 47.3193 58.2369 47.2939 58.2878C47.2048 58.4276 18.7991 58.4149 18.7101 58.2878C18.672 58.2242 18.0744 53.7739 17.3623 48.3953C16.663 43.0168 16.0527 38.4648 16.0145 38.2613L15.9382 37.918H33.002H50.0658L49.9895 38.2613ZM46.9887 60.7672C46.9887 60.8944 46.6454 63.59 46.2258 66.7561C45.412 72.9611 45.3866 73.0501 44.5728 73.5587L44.1278 73.8384H33.002C22.1051 73.8384 21.8635 73.8384 21.4566 73.5841C20.6174 73.0755 20.592 72.9992 19.7782 66.7561C19.3586 63.59 19.0153 60.8944 19.0153 60.7672C19.0153 60.5638 19.7655 60.5511 33.002 60.5511C46.2385 60.5511 46.9887 60.5638 46.9887 60.7672Z" fill="#232323"/>
<path d="M33.6102 39.3165C29.6812 39.9395 26.0193 43.0547 24.6587 46.9583C23.3999 50.5567 24.4172 54.1169 27.1891 55.8971C31.5122 58.669 38.353 55.8335 40.9469 50.2007C43.083 45.5723 41.3538 40.7787 37.0688 39.5199C36.2041 39.2656 34.5639 39.1639 33.6102 39.3165ZM36.2296 41.567C36.4076 41.6179 36.2931 41.7323 35.7082 42.0375C34.602 42.6351 33.7374 43.2963 32.9618 44.1482C32.3133 44.873 32.0971 45.2163 30.5332 48.0899C29.3761 50.2007 27.4052 52.6674 26.9983 52.5148C26.477 52.3114 26.1846 49.8065 26.5279 48.3951C27.3162 45.1654 30.4696 42.1265 33.6357 41.5416C34.5003 41.389 35.6192 41.389 36.2296 41.567ZM39.1668 43.8939C40.629 46.7803 38.7853 51.2687 35.2251 53.4939C33.3432 54.6764 30.9782 55.096 29.3506 54.5238C28.9819 54.4094 28.6767 54.2695 28.6767 54.2314C28.6767 54.1932 29.1091 53.71 29.6304 53.1506C30.7366 51.9681 31.881 50.2897 32.9872 48.1917C34.4749 45.3689 35.5429 44.339 37.8698 43.5125C38.2386 43.3726 38.6073 43.2709 38.6836 43.2582C38.7726 43.2582 38.9887 43.5379 39.1668 43.8939Z" fill="#232323"/>
</g>
<defs>
<clipPath id="clip0_357_27845">
<rect width="66" height="66" fill="white"/>
</clipPath>
</defs>
</svg>
