<svg width="66" height="66" viewBox="0 0 66 66" fill="none" xmlns="http://www.w3.org/2000/svg">
<circle cx="33" cy="33" r="33" fill="#F3D69A"/>
<g clip-path="url(#clip0_357_27834)">
<path d="M39.8965 19.4323C39.6129 19.5612 39.2004 19.8706 38.9684 20.1026C38.1562 20.9534 38.1562 20.9921 38.1562 26.4319C38.1562 31.9362 38.1691 31.9491 39.0715 32.8128C39.8578 33.5476 40.2059 33.6249 42.9258 33.6249H45.375V35.6874V37.7499H31.4531H17.5312V36.7187V35.6874H19.3359C20.973 35.6874 21.1664 35.6616 21.3984 35.4296C22.0172 34.8109 21.5145 32.078 20.5348 30.6472C19.5422 29.2034 18.2531 28.2495 16.6031 27.7339L15.4688 27.373V26.8831V26.4062H16.2422C16.848 26.4062 17.0672 26.3546 17.2734 26.1483C17.6215 25.8003 17.6215 24.9495 17.2734 24.6015C17.0285 24.3566 16.848 24.3437 14.4375 24.3437C12.027 24.3437 11.8465 24.3566 11.6016 24.6015C11.2535 24.9495 11.2535 25.8003 11.6016 26.1483C11.8078 26.3546 12.027 26.4062 12.6328 26.4062H13.4062V26.8831V27.373L12.2719 27.7339C9.96445 28.4558 8.36602 30.0026 7.57969 32.2585C7.11562 33.5991 7.07695 35.03 7.47656 35.4296C7.70859 35.6616 7.90195 35.6874 9.53906 35.6874H11.3438V36.7187V37.7499H8.37891C5.0918 37.7499 4.8082 37.8015 4.00898 38.562C3.22266 39.3097 3.09375 39.7737 3.09375 41.8749C3.09375 43.4218 3.14531 43.8343 3.33867 44.2597C3.78984 45.2136 4.88555 45.9999 5.80078 45.9999H6.1875V58.2718C6.1875 69.9636 6.20039 70.5823 6.43242 71.0722C6.56133 71.3558 6.8707 71.7683 7.10273 72.0003C8.03086 72.8769 5.94258 72.8124 33.0258 72.8124C56.6414 72.8124 57.5695 72.7995 58.0723 72.5675C58.3559 72.4386 58.7684 72.1292 59.0004 71.8972C59.8641 70.9948 59.8125 71.7683 59.8125 58.246V45.9999H60.1992C61.1145 45.9999 62.2102 45.2136 62.6613 44.2597C62.8547 43.8343 62.9062 43.4218 62.9062 41.8749C62.9062 39.7737 62.7773 39.3097 61.991 38.562C61.166 37.7886 60.9598 37.7499 57.1055 37.7499H53.625V35.6874V33.6249H56.1129C58.8844 33.6249 59.2453 33.5347 60.0316 32.7097C60.8438 31.8589 60.8438 31.8202 60.8438 26.4062C60.8438 20.9921 60.8438 20.9534 60.0316 20.1026C59.1164 19.1487 59.6578 19.1874 49.5 19.1874C40.9148 19.1874 40.3863 19.2003 39.8965 19.4323ZM58.0594 21.4304C58.3559 21.5464 58.5363 21.7398 58.6395 22.0233C58.8328 22.6034 58.8328 30.2089 58.6395 30.789C58.4074 31.4464 57.9434 31.5624 55.623 31.5624H53.625V30.2733C53.625 28.3398 53.9086 28.4687 49.5 28.4687C45.0914 28.4687 45.375 28.3398 45.375 30.2733V31.5624H43.3898C41.0953 31.5624 40.657 31.4593 40.3992 30.8405C40.1672 30.2862 40.1414 22.6808 40.3605 22.0233C40.6312 21.2499 40.4895 21.2628 49.4742 21.2499C56.1645 21.2499 57.7113 21.2886 58.0594 21.4304ZM15.9715 29.8351C17.2863 30.2476 18.4465 31.2659 19.0266 32.5034C19.5938 33.728 20.0063 33.6249 14.4375 33.6249C8.83008 33.6249 9.24258 33.7409 9.92578 32.3745C11.0215 30.1702 13.6254 29.0745 15.9715 29.8351ZM51.5625 34.1405V37.7499H49.5H47.4375V34.1405V30.5312H49.5H51.5625V34.1405ZM15.4688 36.7187V37.7499H14.4375H13.4062V36.7187V35.6874H14.4375H15.4688V36.7187ZM60.0703 39.9542C60.6117 40.1476 60.8438 40.7019 60.8438 41.8749C60.8438 43.048 60.6117 43.6023 60.0703 43.7956C59.4645 44.0019 6.53555 44.0019 5.92969 43.7956C5.38828 43.6023 5.15625 43.048 5.15625 41.9007C5.15625 40.7276 5.33672 40.212 5.85234 39.9929C6.1875 39.8511 10.7637 39.8253 32.9484 39.8124C52.5422 39.8124 59.7609 39.8511 60.0703 39.9542ZM57.75 57.7948C57.75 70.8015 57.7758 70.3245 56.9766 70.6081C56.6672 70.7112 50.2348 70.7499 32.9742 70.7499C7.06406 70.7499 8.68828 70.8015 8.3918 69.9765C8.28867 69.6671 8.25 66.2253 8.25 57.7819V45.9999H33H57.75V57.7948Z" fill="#232323"/>
<path d="M14.7088 48.3074C14.567 48.4492 14.4123 48.8359 14.3608 49.184C14.1159 50.8855 13.1233 51.8781 11.4346 52.123C10.2487 52.2906 10.3131 51.9168 10.3131 58.375C10.3131 64.8332 10.2487 64.4723 11.4346 64.627C13.1233 64.8461 14.1287 65.8516 14.3737 67.566C14.4123 67.9141 14.567 68.3008 14.7088 68.4426C14.9537 68.6875 15.3534 68.6875 33.0006 68.6875C50.6479 68.6875 51.0475 68.6875 51.2924 68.4426C51.4342 68.3008 51.5889 67.9141 51.6276 67.566C51.8725 65.8516 52.878 64.8461 54.5666 64.627C55.7526 64.4723 55.6881 64.8332 55.6881 58.375C55.6881 51.9168 55.7526 52.2906 54.5666 52.123C52.8651 51.8781 51.8725 50.8855 51.6276 49.184C51.5889 48.8359 51.4342 48.4492 51.2924 48.3074C51.0475 48.0625 50.6479 48.0625 33.0006 48.0625C15.3534 48.0625 14.9537 48.0625 14.7088 48.3074ZM49.5522 50.2797C50.0807 52.0973 51.4342 53.5926 52.9811 54.0437L53.5612 54.2113V58.375V62.5387L52.9811 62.7063C51.4342 63.1574 50.0807 64.6527 49.5522 66.4703C49.5135 66.5992 46.1491 66.625 33.0006 66.5992L16.4877 66.5605L16.2686 65.916C15.7014 64.2789 14.3866 63.0801 12.5303 62.5516C12.4014 62.5129 12.3756 61.6105 12.4014 58.3621L12.4401 54.2113L13.0202 54.0437C14.567 53.5926 15.9205 52.0973 16.4491 50.2797C16.5135 50.0477 49.4877 50.0477 49.5522 50.2797Z" fill="#232323"/>
<path d="M28.1016 53.4763C27.8566 53.7212 27.8438 53.9017 27.8438 58.3747C27.8438 62.8478 27.8566 63.0282 28.1016 63.2731C28.2691 63.4407 28.527 63.531 28.875 63.531C29.223 63.531 29.4809 63.4407 29.6484 63.2731C29.8805 63.0411 29.9062 62.8478 29.9062 61.2106V59.406H33H36.0938V61.2106C36.0938 62.8478 36.1195 63.0411 36.3516 63.2731C36.6996 63.6212 37.5504 63.6212 37.8984 63.2731C38.1434 63.0282 38.1562 62.8478 38.1562 58.3747C38.1562 53.9017 38.1434 53.7212 37.8984 53.4763C37.7309 53.3087 37.473 53.2185 37.125 53.2185C36.777 53.2185 36.5191 53.3087 36.3516 53.4763C36.1195 53.7083 36.0938 53.9017 36.0938 55.5388V57.3435H33H29.9062V55.5388C29.9062 53.9017 29.8805 53.7083 29.6484 53.4763C29.4809 53.3087 29.223 53.2185 28.875 53.2185C28.527 53.2185 28.2691 53.3087 28.1016 53.4763Z" fill="#232323"/>
</g>
<defs>
<clipPath id="clip0_357_27834">
<rect width="66" height="66" fill="white"/>
</clipPath>
</defs>
</svg>
