<svg width="66" height="66" viewBox="0 0 66 66" fill="none" xmlns="http://www.w3.org/2000/svg">
<circle cx="33" cy="33" r="33" fill="#F3D69A"/>
<g clip-path="url(#clip0_357_27782)">
<path d="M20.9667 20.122C20.4867 20.2994 19.9336 20.7168 19.6414 21.1134C19.2135 21.7291 19.1196 22.2091 19.1196 23.8997V25.5068H18.5456C17.2725 25.5068 16.7194 26.2164 16.7194 27.8236V28.5332H12.6495C8.7152 28.5332 8.5691 28.5436 8.37082 28.7419C8.17255 28.9402 8.16211 29.0863 8.16211 32.697V36.4539L8.43344 36.6626C8.6839 36.8609 8.85087 36.8818 10.364 36.8818H12.0233V38.1653C12.0233 39.4281 12.0338 39.4698 12.326 39.8872C12.5138 40.1273 12.7851 40.3673 12.9938 40.4403L13.3591 40.5656L13.4217 42.2457C13.4635 43.1745 13.6096 49.2585 13.7557 55.7704C13.9226 63.4824 14.0583 67.7506 14.1313 68.0115C14.2879 68.5333 14.8514 69.1699 15.3941 69.4308C15.8324 69.6395 15.9785 69.6499 21.2694 69.6499H26.6959L27.249 69.3786C27.9274 69.0342 28.3552 68.4707 28.5013 67.7402C28.5848 67.2914 29.1483 44.1763 29.1379 41.4526V40.6386L29.4823 40.4925C29.8893 40.3255 30.338 39.8559 30.4841 39.4594C30.5467 39.2924 30.5989 38.6454 30.5989 38.0192V36.8818H32.9991H35.3993V38.0297C35.3993 38.7811 35.4515 39.3028 35.5454 39.522C35.7124 39.9185 36.182 40.3777 36.5786 40.5238C36.8499 40.6282 36.8603 40.6595 36.8603 41.4422C36.8499 44.1763 37.4134 67.2914 37.4969 67.7402C37.643 68.4707 38.0709 69.0342 38.7492 69.3786L39.3023 69.6499H44.7289C50.0198 69.6499 50.1659 69.6395 50.6042 69.4308C51.1468 69.1699 51.7104 68.5333 51.8669 68.0115C51.9399 67.7506 52.0756 63.4824 52.2426 55.7704C52.3887 49.2585 52.5348 43.1745 52.5765 42.2457L52.6391 40.5656L53.0044 40.4403C53.2131 40.3673 53.4844 40.1273 53.6723 39.8872C53.9645 39.4698 53.9749 39.4281 53.9749 38.1653V36.8818H55.6342C57.1474 36.8818 57.3143 36.8609 57.5648 36.6626L57.8361 36.4539V32.697C57.8361 29.0863 57.8257 28.9402 57.6274 28.7419C57.4291 28.5436 57.283 28.5332 53.3488 28.5332H49.2788V27.8236C49.2788 26.2164 48.7257 25.5068 47.4526 25.5068H46.8786V23.9102C46.8786 22.1152 46.7743 21.6352 46.242 20.9882C46.0646 20.7794 45.6994 20.4768 45.4385 20.3098L44.948 20.0281L33.1556 20.0072C23.4817 19.9863 21.2902 20.0072 20.9667 20.122ZM44.5828 21.6769C44.7184 21.75 44.948 21.9691 45.0732 22.157C45.2924 22.4805 45.3133 22.6266 45.3133 24.0041V25.5068H44.6871H44.061V24.3798C44.061 23.5345 44.0192 23.2005 43.894 23.0231L43.7375 22.7935H32.9991H22.2608L22.1042 23.0231C21.979 23.2005 21.9373 23.5345 21.9373 24.3798V25.5068H21.3007H20.6745L20.7058 23.8788L20.7371 22.2509L21.1233 21.8961L21.5198 21.5413H32.9156C41.8277 21.5413 44.374 21.5726 44.5828 21.6769ZM42.4956 24.9224V25.486L41.8173 25.5277C40.6068 25.6007 40.1998 26.133 40.1998 27.6148V28.5332H32.9991H25.7985V27.6148C25.7985 26.133 25.3915 25.6007 24.1809 25.5277L23.5026 25.486V24.9224V24.3589H32.9991H42.4956V24.9224ZM24.2331 27.8027V28.5332H21.2589H18.2848V27.8027V27.0722H21.2589H24.2331V27.8027ZM47.7135 27.8027V28.5332H44.7393H41.7651V27.8027V27.0722H44.7393H47.7135V27.8027ZM56.2708 32.7075V35.3164H32.9991H9.72747V32.7075V30.0985H32.9991H56.2708V32.7075ZM29.0127 37.9462L28.9814 39.0211L21.3633 39.0524C14.2983 39.0733 13.7348 39.0628 13.62 38.8958C13.5365 38.7915 13.4843 38.3741 13.4843 37.8001V36.8818H21.2589H29.044L29.0127 37.9462ZM52.3887 37.9462L52.3574 39.0211H44.6871H37.0169L36.9856 37.9462L36.9543 36.8818H44.6871H52.42L52.3887 37.9462ZM27.5725 41.7552C27.5725 42.8405 27.0821 65.1208 27.0299 66.7592C26.9986 67.5106 26.9673 67.6045 26.7064 67.8341L26.4142 68.0845H21.2798C15.8637 68.0741 15.9576 68.0845 15.6967 67.5941C15.6132 67.4375 15.4984 63.879 15.321 55.8017C15.1749 49.4464 15.0288 43.4249 14.9975 42.4336L14.9349 40.6386H21.2485H27.5725V41.7552ZM51.0007 42.4336C50.9694 43.4249 50.8233 49.4464 50.6772 55.8017C50.4998 63.879 50.385 67.4375 50.3015 67.5941C50.0406 68.0845 50.1346 68.0741 44.7184 68.0845H39.5841L39.2919 67.8341C39.031 67.6045 38.9997 67.5106 38.9683 66.7592C38.9162 65.1208 38.4257 42.8405 38.4257 41.7552V40.6386H44.7497H51.0633L51.0007 42.4336Z" fill="#232323"/>
<path d="M20.987 45.5642C20.8304 45.6163 20.653 45.7833 20.5904 45.9399C20.5069 46.1381 20.4756 48.5905 20.4965 54.5389C20.5278 63.6701 20.4861 63.1066 21.1539 63.2423C21.3835 63.284 21.5505 63.2423 21.7592 63.0753L22.041 62.8561V54.3719C22.041 46.4199 22.0305 45.8772 21.8636 45.7311C21.6027 45.512 21.3105 45.4598 20.987 45.5642Z" fill="#232323"/>
<path d="M44.531 45.5224C44.4162 45.5433 44.2388 45.6372 44.1449 45.7311C43.9675 45.8772 43.957 46.4199 43.957 54.3719V62.8561L44.2388 63.0753C44.4475 63.2423 44.6145 63.284 44.8441 63.2423C45.512 63.1066 45.4702 63.6701 45.5015 54.5389C45.5224 48.6114 45.4911 46.1381 45.4076 45.9399C45.2824 45.6477 44.8754 45.4494 44.531 45.5224Z" fill="#232323"/>
</g>
<defs>
<clipPath id="clip0_357_27782">
<rect width="66" height="66" fill="white"/>
</clipPath>
</defs>
</svg>
