<svg width="66" height="66" viewBox="0 0 66 66" fill="none" xmlns="http://www.w3.org/2000/svg">
<circle cx="33" cy="33" r="33" fill="#F3D69A"/>
<path d="M30.4477 1.16015C27.0703 1.58554 23.6543 2.86171 20.857 4.73085C18.034 6.61289 15.8941 8.90742 14.0379 12.027L13.4062 13.084V14.2699V15.4687H14.4375H15.4559L15.4945 21.7465L15.5332 28.0371L15.9457 28.9008C16.4871 30.0609 17.2348 30.8344 18.3434 31.3887C18.8332 31.6336 19.323 31.8398 19.4133 31.8398C19.5293 31.8398 19.5937 32.0074 19.5937 32.3168C19.6066 32.5875 19.6582 33.0645 19.7098 33.3609L19.8258 33.9281L19.091 34.3793C16.5 36.0164 14.9016 38.0789 14.5277 40.2832C14.2312 42.0234 14.8371 44.0215 16.1648 45.6199L16.7449 46.3289L16.2035 46.7801C13.9348 48.6363 11.8594 51.4594 10.7766 54.1406C9.68086 56.8219 9.28125 59.1422 9.28125 62.7258V64.9688H33.0129H56.7445L56.6801 62.0941C56.6156 58.9488 56.448 57.75 55.8035 55.7133C54.7465 52.4262 52.6711 49.2422 50.2219 47.1539L49.268 46.3418L49.5773 45.9551C49.7578 45.7359 50.1187 45.2332 50.4023 44.8078C52.7742 41.2887 51.4078 37.241 46.909 34.3793L46.1742 33.9281L46.2902 33.3609C46.3418 33.0645 46.3934 32.5875 46.4062 32.3168C46.4062 32.0074 46.4707 31.8398 46.5867 31.8398C46.677 31.8398 47.1668 31.6336 47.6566 31.3887C48.7652 30.8344 49.5129 30.0609 50.0543 28.9008L50.4668 28.0371L50.5055 21.7465L50.5441 15.4687H51.5625H52.5937V14.2699V13.084L51.9621 12.027C48.6105 6.39375 43.5961 2.77148 37.3312 1.46953C35.5652 1.10859 32.1234 0.953903 30.4477 1.16015ZM36.5449 3.41601C38.066 3.68671 40.4121 4.47304 41.8559 5.19492C45.1172 6.83203 48.0047 9.4875 49.8738 12.5297L50.4023 13.4062H33H15.5977L16.1262 12.5297C19.1941 7.54101 24.402 4.125 30.293 3.27422C31.827 3.05507 34.9465 3.11953 36.5449 3.41601ZM48.4687 15.9457C48.4559 16.6418 48.0562 17.441 47.5535 17.7633C46.8961 18.1629 43.1965 18.8203 38.8652 19.2844C36.0035 19.6066 29.9965 19.6066 27.1348 19.2844C22.8035 18.8203 19.1039 18.1629 18.4465 17.7633C17.9437 17.441 17.5441 16.6418 17.5312 15.9457V15.4687H33H48.4687V15.9457ZM18.7301 20.0578L19.5937 20.2898V21.0375C19.5937 21.7465 19.5809 21.7852 19.2457 21.8625C19.0395 21.9012 18.5754 22.1074 18.2145 22.3137L17.5312 22.6875V21.1922C17.5312 20.0578 17.5699 19.7098 17.6988 19.7613C17.7762 19.8 18.2402 19.9289 18.7301 20.0578ZM48.4687 21.1793V22.6488L47.618 22.2105C47.141 21.9785 46.677 21.7852 46.5867 21.7852C46.4578 21.7852 46.4062 21.5789 46.4062 21.0246V20.2641L46.9477 20.1738C47.2312 20.1223 47.6566 20.0062 47.8758 19.9031C48.0949 19.8129 48.3141 19.7355 48.3785 19.7227C48.4301 19.7227 48.4687 20.3801 48.4687 21.1793ZM24.7758 21.0762C30.9504 21.8496 36.1453 21.8109 42.3457 20.9344C43.132 20.8312 43.8926 20.7023 44.0602 20.6637L44.3566 20.5992L44.318 27.0187C44.2793 33.2707 44.2664 33.477 43.9828 34.1988C43.132 36.4805 41.6238 37.9758 39.3551 38.8266C38.6461 39.0973 38.3754 39.1102 33.4898 39.1617C28.2176 39.2004 27.573 39.1617 26.284 38.6848C24.0797 37.8469 22.2105 35.6297 21.798 33.3352C21.7078 32.8582 21.6562 30.2672 21.6562 26.5805V20.5992L21.9785 20.6766C22.1461 20.7152 23.4094 20.8957 24.7758 21.0762ZM19.5937 26.8125C19.5937 28.3723 19.568 29.6484 19.5293 29.6484C19.2844 29.6484 18.6527 29.1973 18.2789 28.7461C17.3121 27.6246 17.2863 26.0648 18.2145 24.9305C18.5754 24.4922 19.2715 23.9766 19.5035 23.9766C19.5551 23.9766 19.5937 25.2527 19.5937 26.8125ZM46.909 24.1699C47.4375 24.4406 48.1465 25.3043 48.3141 25.8973C48.6363 26.9414 48.4301 27.934 47.7211 28.7461C47.3473 29.1973 46.7156 29.6484 46.4707 29.6484C46.432 29.6484 46.4062 28.3723 46.4062 26.8125C46.4062 25.2527 46.432 23.9766 46.4707 23.9766C46.5223 23.9766 46.7156 24.0668 46.909 24.1699ZM21.1148 36.9961C21.7078 37.8855 22.7262 38.9812 23.4094 39.4453C23.6414 39.6129 23.693 39.8191 23.7574 40.8504C24.0152 44.4211 26.3355 47.5535 29.6871 48.8555C30.2027 49.0617 30.9246 49.268 31.2984 49.3195L31.9687 49.4098V52.0266V54.6562H29.7902H27.6117L27.457 54.2695C27.0961 53.393 25.7941 52.5937 24.75 52.5937C23.1516 52.5937 21.6562 54.0891 21.6562 55.6875C21.6562 57.2859 23.1516 58.7812 24.75 58.7812C25.7941 58.7812 27.0961 57.982 27.457 57.1055L27.6117 56.7188H29.7902H31.9687V59.8125V62.9062H25.7812H19.5937V54.4242V45.9551L19.0652 45.5684C18.2273 44.9496 17.3895 43.957 16.9641 43.0547C16.6289 42.3457 16.5645 42.0621 16.5645 41.25C16.5645 40.4379 16.6289 40.1543 16.9641 39.4453C17.4668 38.4012 18.3434 37.4215 19.5164 36.5965C20.0062 36.2484 20.4187 35.9777 20.4445 35.9906C20.4574 36.0164 20.7668 36.4676 21.1148 36.9961ZM46.6125 36.6867C47.6824 37.4344 48.559 38.427 49.0359 39.4453C49.3711 40.1543 49.4355 40.4379 49.4355 41.25C49.4355 42.0621 49.3711 42.3457 49.0359 43.0547C48.6105 43.9441 47.618 45.1301 46.8703 45.6457L46.4062 45.9551V54.4242V62.9062H40.2187H34.0312V59.8125V56.7188H36.2098H38.3883L38.543 57.1055C38.9039 57.982 40.2059 58.7812 41.25 58.7812C42.8484 58.7812 44.3437 57.2859 44.3437 55.6875C44.3437 54.0891 42.8484 52.5937 41.25 52.5937C40.2059 52.5937 38.9039 53.393 38.543 54.2695L38.3883 54.6562H36.2098H34.0312V52.0266V49.4098L34.7016 49.3195C36.3645 49.1004 38.427 47.9531 39.7418 46.5352C41.2758 44.8723 42.1008 42.9902 42.2426 40.8375C42.3199 39.6387 42.3199 39.6129 42.7582 39.3164C43.3898 38.8781 44.5113 37.6277 45.0656 36.7383C45.3363 36.2871 45.5941 36.0035 45.6844 36.0551C45.7617 36.0937 46.1871 36.3773 46.6125 36.6867ZM26.6191 40.9406C26.877 40.9793 27.1219 41.1082 27.1605 41.1984C27.2508 41.4562 26.9543 42.1395 26.6707 42.2812C26.1809 42.552 26.0262 42.3715 25.8586 41.2629C25.7941 40.7988 25.807 40.7215 25.9617 40.773C26.0648 40.8117 26.3613 40.8891 26.6191 40.9406ZM40.1414 41.2758C39.9609 42.4359 39.7031 42.668 39.1875 42.1523C38.9168 41.8816 38.7234 41.2887 38.8652 41.1469C38.9297 41.0695 39.7676 40.8117 40.1285 40.7473C40.1801 40.7473 40.1801 40.9793 40.1414 41.2758ZM36.7383 41.4176C36.7383 42.3199 37.6148 43.7379 38.4398 44.1633C38.6332 44.2664 38.8008 44.3953 38.8008 44.4598C38.8008 44.7176 37.2023 46.1355 36.5062 46.4965C35.1914 47.1926 34.4824 47.373 33 47.373C31.6078 47.373 30.8602 47.2055 29.7129 46.6254C29.0426 46.2902 28.0113 45.4781 27.5215 44.8852C27.1605 44.4598 27.1605 44.4211 27.3926 44.2922C28.3336 43.7379 29.0039 42.7969 29.1973 41.727L29.2875 41.25H33.0129C36.0164 41.25 36.7383 41.2887 36.7383 41.4176ZM17.5312 55.6875V62.9062H14.4246H11.3051L11.3824 61.1273C11.5242 57.6082 12.4266 54.7465 14.257 51.9879C14.9531 50.9437 17.1703 48.4688 17.4152 48.4688C17.4797 48.4688 17.5312 51.6012 17.5312 55.6875ZM49.8352 49.6676C52.9031 52.8773 54.4371 56.5512 54.6176 61.1273L54.6949 62.9062H51.5754H48.4687V55.6875C48.4687 51.6012 48.5203 48.4688 48.5848 48.4688C48.6492 48.4688 49.2164 49.0102 49.8352 49.6676ZM25.459 54.9785C26.1035 55.6102 25.6523 56.7188 24.75 56.7188C24.5051 56.7188 24.2344 56.6027 24.041 56.3965C23.8348 56.2031 23.7187 55.9324 23.7187 55.6875C23.7187 55.4426 23.8348 55.1719 24.041 54.9785C24.2344 54.7723 24.5051 54.6562 24.75 54.6562C24.9949 54.6562 25.2656 54.7723 25.459 54.9785ZM41.959 54.9785C42.6035 55.6102 42.1523 56.7188 41.25 56.7188C40.7215 56.7188 40.2187 56.216 40.2187 55.6875C40.2187 55.159 40.7215 54.6562 41.25 54.6562C41.4949 54.6562 41.7656 54.7723 41.959 54.9785Z" fill="#232323"/>
<path d="M25.7816 22.8551C25.1499 23.0613 24.0671 24.1699 23.8738 24.8273C23.5128 26.0391 23.7706 27.0059 24.6859 27.9082C25.3433 28.5785 26.0007 28.875 26.8128 28.875C27.6249 28.875 28.2824 28.5785 28.9398 27.9082C30.2031 26.6578 30.2417 25.0465 29.0429 23.7187C28.205 22.7906 27.0062 22.4684 25.7816 22.8551ZM27.5218 25.0723C28.1663 25.7039 27.7152 26.8125 26.8128 26.8125C26.2843 26.8125 25.7816 26.3098 25.7816 25.7812C25.7816 25.2527 26.2843 24.75 26.8128 24.75C27.0577 24.75 27.3284 24.866 27.5218 25.0723Z" fill="#232323"/>
<path d="M38.1566 22.8551C37.5249 23.0613 36.4421 24.1699 36.2488 24.8273C35.8878 26.0391 36.1456 27.0059 37.0609 27.9082C37.7183 28.5785 38.3757 28.875 39.1878 28.875C39.9999 28.875 40.6574 28.5785 41.3148 27.9082C42.5781 26.6578 42.6167 25.0465 41.4179 23.7187C40.58 22.7906 39.3812 22.4684 38.1566 22.8551ZM39.8968 25.0723C40.1031 25.2656 40.2191 25.5363 40.2191 25.7812C40.2191 26.0262 40.1031 26.2969 39.8968 26.4902C39.7034 26.6965 39.4327 26.8125 39.1878 26.8125C38.9429 26.8125 38.6722 26.6965 38.4788 26.4902C38.2726 26.2969 38.1566 26.0262 38.1566 25.7812C38.1566 25.5363 38.2726 25.2656 38.4788 25.0723C38.6722 24.866 38.9429 24.75 39.1878 24.75C39.4327 24.75 39.7034 24.866 39.8968 25.0723Z" fill="#232323"/>
<path d="M27.8691 32.0848C27.998 34.173 28.9777 35.6812 30.7824 36.5836C31.7105 37.0348 31.8266 37.0605 32.9996 37.0605C34.1727 37.0605 34.2887 37.0348 35.2168 36.5836C37.0215 35.6812 38.0012 34.173 38.1301 32.0848L38.1945 30.9375H32.9996H27.8047L27.8691 32.0848ZM35.8355 33.2062C35.8355 33.5543 34.5336 34.7402 33.9535 34.9078C32.7289 35.2688 31.7879 35.0109 30.8469 34.0699C29.7512 32.9871 29.7254 33 32.9996 33C35.4875 33 35.8355 33.0258 35.8355 33.2062Z" fill="#232323"/>
</svg>
