<svg width="66" height="66" viewBox="0 0 66 66" fill="none" xmlns="http://www.w3.org/2000/svg">
<circle cx="33" cy="33" r="33" fill="#F3D69A"/>
<g clip-path="url(#clip0_357_27767)">
<path d="M35.1558 6.79381C33.8317 6.0472 32.1342 6.05425 30.8171 6.82199C30.1409 7.21642 -0.286954 37.6443 -0.681389 38.3204C-1.48435 39.7009 -1.44913 41.497 -0.60391 42.8071C-0.188345 43.4481 30.0493 73.6857 30.6973 74.1083C32.0356 74.9817 33.9584 74.9747 35.3037 74.1083C35.9447 73.6928 66.1894 43.4481 66.605 42.8071C67.4502 41.497 67.4854 39.701 66.6825 38.3204C66.3091 37.6795 35.7827 7.15303 35.1558 6.79381ZM65.4569 39.6728C65.6118 40.1799 65.6048 40.8631 65.4428 41.3914C65.3301 41.7576 64.8089 42.293 49.7992 57.3026C34.7896 72.3123 34.2543 72.8335 33.888 72.9462C33.3597 73.1082 32.6765 73.1152 32.1694 72.9603L31.7327 72.8335L16.2018 57.3026C1.19218 42.293 0.670959 41.7576 0.558264 41.3914C0.396264 40.8631 0.38922 40.1799 0.544177 39.6728L0.670959 39.2361L16.2018 23.7052C31.2115 8.69555 31.7468 8.17433 32.1131 8.06164C32.8456 7.83625 33.6415 7.89964 34.2754 8.23772C34.4022 8.30816 41.4457 15.3094 49.919 23.7968L65.3301 39.2361L65.4569 39.6728Z" fill="#232323"/>
<path d="M34.1341 10.59C33.8594 10.4421 33.4438 10.3505 33.0142 10.3435C31.1829 10.3153 29.9573 12.1466 30.6617 13.8652C31.0138 14.7104 32.1267 15.4288 33.0564 15.4007C33.958 15.3725 34.9159 14.7386 35.3033 13.9145C35.8738 12.7242 35.3385 11.2028 34.1341 10.59ZM33.7819 12.5762C33.958 13.1468 33.5847 13.675 33.0001 13.668C32.0844 13.668 31.845 12.3861 32.7043 12.0902C32.9931 11.9846 33.4368 12.0621 33.6199 12.2452C33.6692 12.2945 33.7467 12.4424 33.7819 12.5762Z" fill="#232323"/>
<path d="M47.1588 23.5291C42.9961 20.113 37.9037 18.331 32.5577 18.4367C27.8949 18.5212 23.6054 19.9933 19.7104 22.8459C18.4285 23.7897 16.2873 25.9309 15.3434 27.2129C12.4908 31.1079 11.0187 35.3974 10.9342 40.0602C10.8356 45.0329 12.3429 49.7097 15.3434 53.795C16.2873 55.0769 18.4426 57.2322 19.7104 58.1619C23.5632 61.0004 27.9794 62.5148 32.6 62.5852C37.5656 62.6486 42.1016 61.1976 46.2502 58.1901C47.4969 57.2956 49.7156 55.0769 50.6594 53.795C53.5966 49.8013 55.0475 45.4062 55.0475 40.5039C55.0546 35.6369 53.5966 31.2065 50.7158 27.2974C49.9621 26.2761 48.0745 24.2757 47.1588 23.5291ZM49.3916 28.368C52.0893 32.0236 53.5121 36.5596 53.3782 41.0603C53.1458 49.2378 48.1238 56.4151 40.5168 59.4438C34.6707 61.7682 27.9231 61.2329 22.563 58.014C18.6539 55.6685 15.752 52.2595 14.0615 48.0193C11.4202 41.3914 12.4556 33.8478 16.7944 28.1003C17.6396 26.9875 19.7034 24.9519 20.8092 24.156C23.3448 22.3247 25.9932 21.1273 28.8247 20.5497C35.0934 19.2678 41.3128 20.8667 46.3418 25.0505C46.9757 25.5858 48.807 27.5721 49.3916 28.368Z" fill="#232323"/>
<path d="M44.9688 26.1292C44.039 25.3544 42.9966 24.6641 41.7921 24.0231C33.3047 19.4801 22.7536 22.1566 17.4076 30.1932C15.203 33.5107 14.0831 37.7298 14.3578 41.7234C14.7945 48.3725 18.6966 54.2326 24.6624 57.2261C30.6212 60.2125 37.7069 59.7759 43.3488 56.0639C49.2864 52.1689 52.4841 45.0127 51.5051 37.8354C50.8923 33.3769 48.4835 29.0804 44.9688 26.1292ZM46.7367 30.5032C47.0325 30.9117 47.434 31.5245 47.6312 31.8625L47.9974 32.4824L47.7016 32.8768C47.2227 33.4966 45.5745 35.1307 44.7997 35.7505C43.8066 36.5324 42.6021 37.3142 41.5808 37.8425C40.468 38.4059 38.2352 39.1737 37.1294 39.3638L36.2701 39.5047L36.0235 39.0046C35.7066 38.3637 35.1431 37.8002 34.5021 37.4832L34.0021 37.2367L34.1429 36.3915C34.3261 35.3772 34.967 33.3558 35.4319 32.3697C35.9108 31.3554 36.7279 30.0453 37.5308 29.0029C38.2352 28.0872 39.9045 26.3616 40.6229 25.8122L41.0244 25.5093L41.8133 25.9883C42.5247 26.4038 43.3769 27.0307 44.2644 27.7632C44.7997 28.1999 46.1802 29.7354 46.7367 30.5032ZM37.8619 26.0939C37.1294 26.8546 36.5166 27.4815 36.4954 27.4885C36.4743 27.4956 36.3616 27.0307 36.2419 26.4602C36.1151 25.8826 35.9038 25.0515 35.7629 24.6007C35.6221 24.1499 35.5164 23.7625 35.5375 23.7414C35.6432 23.6358 38.9325 24.488 39.1438 24.6712C39.1649 24.6923 38.5874 25.3403 37.8619 26.0939ZM49.1455 35.2505C49.4202 36.1027 49.8358 37.8988 49.7654 37.9692C49.7442 37.9904 49.3568 37.8847 48.9061 37.7438C48.4553 37.603 47.6241 37.3917 47.0466 37.2649C46.4761 37.1452 46.0112 37.0325 46.0182 37.0113C46.0394 36.9338 48.7934 34.3207 48.8215 34.3489C48.8427 34.37 48.9765 34.7715 49.1455 35.2505ZM34.0161 24.7416C34.3894 25.8756 34.7698 27.6365 34.9107 28.8338C34.9881 29.4607 34.967 29.6932 34.798 29.9749C33.6992 31.8485 32.9314 33.8277 32.537 35.828C32.3891 36.5535 32.2271 37.1804 32.1778 37.2015C32.1214 37.2297 31.4382 36.6028 30.3535 35.5322C28.7617 33.9545 28.5434 33.7643 27.5502 33.1233C26.9515 32.7359 26.3528 32.3626 26.2049 32.2992C25.9936 32.2006 25.8739 32.0527 25.6344 31.5878C25.2047 30.7215 24.4652 28.4465 24.2116 27.2068C23.9581 25.9531 23.8594 26.108 25.3738 25.3403C26.9445 24.5303 29.0787 23.8893 30.8818 23.6639C31.8961 23.5372 33.4808 23.516 33.5935 23.6287C33.6428 23.678 33.833 24.1781 34.0161 24.7416ZM49.9485 40.9275C49.9344 42.139 49.871 42.6391 49.5893 44.0196C49.3075 45.3719 48.7511 46.9849 48.1665 48.133C47.3917 49.6544 47.5678 49.5487 46.2084 49.274C43.8348 48.788 41.285 47.7315 39.3692 46.4496C38.3408 45.7593 36.7208 44.3084 35.9742 43.4209L35.4882 42.8363L35.7348 42.5052C35.8686 42.3151 36.0587 41.9558 36.1644 41.6952L36.3546 41.2233L37.2914 41.0472C39.2917 40.681 41.6231 39.8287 43.1163 38.9412C43.6939 38.5891 43.8277 38.5538 44.4264 38.5891C45.7435 38.6525 49.54 39.5752 49.871 39.9062C49.9203 39.9555 49.9555 40.4133 49.9485 40.9275ZM22.7184 28.2774C22.8381 28.8057 23.0706 29.6298 23.2326 30.1017C23.4016 30.5665 23.5143 30.9751 23.4932 30.9962C23.4721 31.0173 23.0635 30.9046 22.5987 30.7356C22.1267 30.5736 21.3027 30.3412 20.7814 30.2144C20.2532 30.0946 19.7883 29.9678 19.7601 29.9397C19.732 29.9115 19.9926 29.5664 20.3377 29.179C21.0491 28.3831 22.3592 27.1857 22.4367 27.2632C22.4648 27.2913 22.5916 27.7562 22.7184 28.2774ZM45.6661 51.8308C44.9547 52.6267 43.6446 53.8241 43.5671 53.7466C43.5389 53.7185 43.4121 53.2536 43.2924 52.7253C43.1656 52.2041 42.9332 51.38 42.7712 50.9081C42.6021 50.4432 42.4824 50.0418 42.5106 50.0136C42.5317 49.9925 43.0881 50.1545 43.7432 50.3728C44.3982 50.5771 45.2082 50.8095 45.5322 50.8659C45.8633 50.9292 46.1661 51.0067 46.2084 51.049C46.2648 51.0912 46.0605 51.38 45.6661 51.8308ZM34.6008 40.033C34.7698 40.5824 34.6008 41.3008 34.1993 41.7023C33.5865 42.3151 32.4173 42.3151 31.8045 41.7023C31.1917 41.0895 31.1917 39.9203 31.8045 39.3075C32.206 38.906 32.9244 38.737 33.4738 38.906C34.0654 39.0892 34.4176 39.4413 34.6008 40.033ZM30.1845 37.772C30.5014 38.1735 30.5014 38.1876 30.262 38.5116C30.1352 38.6947 29.945 39.0539 29.8464 39.3075L29.6562 39.7653L28.3391 40.04C26.2683 40.4626 24.3384 41.2092 22.4719 42.301C22.0634 42.5405 21.352 42.4912 19.4009 42.0897C18.2458 41.8502 16.2877 41.2585 16.1327 41.1036C16.0412 41.012 16.0341 39.4554 16.1257 38.6313C16.3229 36.8423 17.0343 34.4405 17.8373 32.8768C18.605 31.3625 18.4501 31.4611 19.7038 31.7146C22.3874 32.2429 25.1766 33.4544 27.2544 34.9828C28.0644 35.5815 29.6421 37.0888 30.1845 37.772ZM40.4821 49.6614C40.9821 50.7813 41.5174 52.4718 41.7781 53.7466C42.0527 55.0638 42.1443 54.9018 40.63 55.6695C38.7634 56.6204 36.1362 57.3177 34.0161 57.4374C32.3046 57.529 32.4595 57.6276 31.9735 56.1273C30.7198 52.3098 30.6916 48.464 31.882 44.8507L32.2201 43.8224L32.6427 43.8646C32.861 43.8858 33.2836 43.8717 33.5583 43.8224L34.0584 43.7449L34.3965 44.1816C35.5305 45.6114 37.6365 47.4357 39.2072 48.3443C39.6439 48.5978 40.0313 48.8303 40.0735 48.8585C40.1228 48.8937 40.306 49.2599 40.4821 49.6614ZM30.4662 42.7588C30.7127 43.0053 30.7057 43.0265 30.3535 44.0407C29.6844 45.9636 29.3534 47.7879 29.3111 49.8164C29.297 50.8729 29.29 50.894 28.8392 51.5279C28.2827 52.3239 26.0922 54.6552 25.4583 55.1342L24.9794 55.5005L24.3595 55.1342C21.9647 53.7255 19.7883 51.5491 18.3726 49.1472L18.0063 48.5274L18.3092 48.1259C18.4782 47.9146 19.0558 47.2807 19.6052 46.7313C22.3381 43.9562 25.726 42.146 29.1773 41.5966L29.7407 41.5121L29.9802 42.0052C30.1141 42.2799 30.3394 42.6179 30.4662 42.7588ZM30.2408 56.4091C30.3817 56.8599 30.4874 57.2472 30.4662 57.2684C30.3535 57.3811 26.8459 56.4372 26.8529 56.3034C26.8529 56.2752 27.4587 55.6272 28.1982 54.8595L29.5506 53.4508L29.7689 54.5285C29.8887 55.1131 30.1 55.9583 30.2408 56.4091ZM18.6261 45.3156C17.8725 46.0552 17.2315 46.6539 17.2034 46.6539C17.0625 46.6539 16.1327 43.1462 16.2384 43.0405C16.2595 43.0194 16.7596 43.1532 17.3372 43.3223C17.9218 43.4984 18.7388 43.7097 19.1614 43.7801C19.5841 43.8646 19.9433 43.9421 19.9644 43.9632C19.9926 43.9773 19.3798 44.5901 18.6261 45.3156Z" fill="#232323"/>
<path d="M61.9005 38.2862C60.9215 37.7438 59.6748 37.9199 58.893 38.7018C57.8646 39.7442 57.8505 41.2656 58.8718 42.2869C59.5551 42.9701 60.4214 43.2025 61.33 42.9278C62.0625 42.7165 62.5063 42.3573 62.8725 41.6952C63.5205 40.5119 63.0768 38.9271 61.9005 38.2862ZM61.492 40.4838C61.5131 40.9838 61.0201 41.4064 60.4989 41.336C59.8861 41.2585 59.6185 40.3711 60.0622 39.9273C60.5975 39.4061 61.4568 39.7442 61.492 40.4838Z" fill="#232323"/>
<path d="M6.35502 38.1581C5.51685 37.8271 4.49554 37.9609 3.78415 38.5032C2.85441 39.2076 2.55859 40.6585 3.12911 41.708C4.18563 43.6239 6.98894 43.4125 7.72146 41.3559C7.94685 40.736 7.93981 40.2078 7.70737 39.595C7.50311 39.0526 6.84807 38.3553 6.35502 38.1581ZM6.16485 40.5036C6.17189 41.4263 4.88294 41.6587 4.58007 40.7924C4.52372 40.6374 4.52372 40.3698 4.58007 40.2148C4.88294 39.3485 6.17189 39.5809 6.16485 40.5036Z" fill="#232323"/>
<path d="M33.8532 65.7836C32.9023 65.4385 31.9515 65.6568 31.219 66.3753C30.5357 67.0585 30.3033 67.9248 30.578 68.8335C30.9161 69.9745 31.8247 70.6718 33.001 70.6648C34.8252 70.6718 36.0367 68.8405 35.3394 67.143C35.114 66.5936 34.466 66.002 33.8532 65.7836ZM33.8321 68.1009C33.8532 68.7137 33.2827 69.1293 32.7122 68.925C31.8458 68.6222 32.0783 67.3332 33.001 67.3402C33.4306 67.3332 33.811 67.6854 33.8321 68.1009Z" fill="#232323"/>
</g>
<defs>
<clipPath id="clip0_357_27767">
<rect width="66" height="66" fill="white"/>
</clipPath>
</defs>
</svg>
