<svg width="66" height="66" viewBox="0 0 66 66" fill="none" xmlns="http://www.w3.org/2000/svg">
<circle cx="33" cy="33" r="33" fill="#F3D69A"/>
<g clip-path="url(#clip0_357_27793)">
<path d="M30.3565 9.13279C26.5279 9.5324 22.3772 11.0922 19.2061 13.348C17.6076 14.4824 15.2873 16.7383 14.1014 18.298C11.7682 21.3918 10.4404 24.4082 9.64122 28.3656C9.38341 29.616 9.34474 30.1961 9.35763 32.7742C9.35763 35.4941 9.38341 35.8679 9.70568 37.3633C10.6854 42.0039 12.6318 45.7551 15.7256 48.9906C17.6979 51.0531 19.451 52.3808 22.1065 53.7988C24.4139 55.0363 25.574 56.3769 26.1026 58.4265C26.2057 58.839 26.2959 59.4062 26.2959 59.6769V60.1668H24.5815C22.158 60.1668 22.2611 60.025 22.3256 63.209L22.3643 65.6453L22.7897 66.4316C23.3182 67.3984 23.7951 67.8754 24.8006 68.4426C25.5225 68.8422 25.574 68.9066 25.7158 69.5383C26.1541 71.459 27.7139 73.3926 29.5443 74.2691C33.5276 76.1769 38.2842 74.0242 39.4443 69.7703C39.6506 69.0226 39.6764 69.0097 40.2307 68.8679C41.61 68.507 42.8346 67.5273 43.4404 66.2898C43.7369 65.684 43.7627 65.4906 43.8014 63.209C43.8529 60.8371 43.8401 60.7726 43.5565 60.4761C43.2858 60.1926 43.1826 60.1668 41.8678 60.1668H40.4756V59.3547C40.4756 57.7691 41.1588 56.1836 42.3447 55.0105C42.7444 54.6109 43.6467 53.9793 44.5233 53.4765C46.7404 52.2004 47.9651 51.2594 49.8213 49.4031C51.7549 47.4695 52.8893 45.9355 54.0623 43.6668C55.7252 40.4441 56.5502 37.2988 56.6791 33.7281C56.7693 31.1113 56.5889 29.2679 56.0088 26.9605C53.1213 15.4363 42.2674 7.89529 30.3565 9.13279ZM35.7318 11.2469C39.483 11.7367 42.899 13.116 45.9154 15.3332C47.5654 16.5449 49.7826 18.8652 50.9428 20.5926C53.2631 24.0601 54.449 27.6953 54.6166 31.8332C54.7713 35.8551 54.0623 39.1293 52.2576 42.6355C50.2338 46.6058 47.3979 49.4933 43.2471 51.8265C40.7592 53.2187 39.2768 55.0234 38.6709 57.4082C38.5291 57.9625 38.4131 58.7746 38.4131 59.2258V60.0379H33.4115H28.41L28.2682 58.8906C27.8686 55.7711 26.1928 53.541 23.0088 51.9426C17.2983 49.0679 13.0959 43.525 11.7295 37.0281C11.3428 35.1847 11.2397 31.7301 11.5233 29.7449C12.6834 21.482 18.3037 14.7015 26.1154 12.1363C27.3658 11.7367 29.6217 11.2597 30.8721 11.1437C32.1483 11.0277 34.4686 11.0793 35.7318 11.2469ZM41.7647 63.5828C41.7647 64.4594 41.7002 65.091 41.5842 65.3617C41.3651 65.8644 40.669 66.5476 40.1791 66.7281C39.6764 66.9215 26.4506 66.9215 25.9479 66.7281C25.458 66.5476 24.7619 65.8644 24.5428 65.3617C24.4268 65.091 24.3623 64.4594 24.3623 63.5828V62.2293H33.0635H41.7647V63.5828ZM37.4463 69.2804C37.1369 70.5824 36.183 71.7168 34.8295 72.3742C33.9014 72.8383 33.7854 72.864 32.6252 72.864C31.5037 72.864 31.3104 72.8254 30.524 72.4515C30.0471 72.2324 29.3897 71.7812 29.0674 71.4461C28.526 70.9176 27.7139 69.4996 27.7139 69.0871C27.7139 68.9711 28.7838 68.9324 32.6252 68.9324H37.5365L37.4463 69.2804Z" fill="#232323"/>
<path d="M30.873 25.3235C27.2766 25.7747 23.332 27.502 20.625 29.8095C19.8773 30.454 19.6066 30.8149 19.5938 31.2017C19.5938 31.5368 20.2898 32.1942 20.6508 32.1942C20.8441 32.1942 21.4113 31.8333 22.1332 31.2532C24.7629 29.1649 27.6117 27.9017 30.7699 27.4376C32.1234 27.2313 34.8305 27.27 36.2355 27.502C39.368 28.0306 42.4746 29.513 45.0012 31.7044C45.8391 32.4392 46.3547 32.5165 46.8574 32.0009C47.3988 31.4724 47.2957 31.0856 46.3418 30.1833C43.9828 27.9145 40.2188 26.097 36.6352 25.4782C35.2688 25.2462 32.1363 25.156 30.873 25.3235Z" fill="#232323"/>
<path d="M31.2598 30.6599C28.7203 31.0209 25.923 32.297 24.0152 33.9341C23.5512 34.3337 23.4609 34.4755 23.4609 34.888C23.4609 35.2232 23.5512 35.4552 23.7574 35.6486C24.2473 36.1126 24.6727 36.0095 25.8199 35.133C29.2488 32.5419 33.6445 31.8974 37.6406 33.3927C38.9555 33.8955 39.8965 34.424 41.0824 35.3779C41.5594 35.7517 42.0363 36.0869 42.1652 36.1255C42.5133 36.2416 43.0934 35.9193 43.2996 35.4939C43.5703 34.9138 43.2609 34.424 41.9461 33.4443C38.8652 31.1369 34.9852 30.1185 31.2598 30.6599Z" fill="#232323"/>
<path d="M32.1232 35.9455C30.5634 36.1389 28.7201 36.951 27.6888 37.8533C27.0185 38.4592 26.9541 39.0264 27.5084 39.5033C27.9982 39.9287 28.3334 39.8771 29.1841 39.2713C31.6849 37.4795 34.7658 37.4924 37.4212 39.2971C37.9369 39.6451 38.4783 39.9287 38.6459 39.9287C39.097 39.9287 39.574 39.3744 39.574 38.8459C39.574 38.485 39.4708 38.3174 38.9939 37.892C37.3439 36.4354 34.4822 35.6232 32.1232 35.9455Z" fill="#232323"/>
<path d="M32.418 41.527C31.5672 41.9009 30.8196 42.9966 30.8067 43.8602C30.7938 46.0259 33.243 47.3794 34.9704 46.1548C36.6333 44.9946 36.4657 42.5196 34.6481 41.5915C34.0809 41.3079 32.9981 41.2692 32.418 41.527Z" fill="#232323"/>
</g>
<defs>
<clipPath id="clip0_357_27793">
<rect width="66" height="66" fill="white"/>
</clipPath>
</defs>
</svg>
