<svg width="66" height="66" viewBox="0 0 66 66" fill="none" xmlns="http://www.w3.org/2000/svg">
<circle cx="33" cy="33" r="33" fill="#F3D69A"/>
<g clip-path="url(#clip0_357_27806)">
<path d="M13.432 11.2174C12.1687 11.6557 11.1117 12.8287 10.841 14.0662C10.7379 14.5303 10.6992 23.3862 10.6992 43.8951C10.6992 72.4479 10.6992 73.0666 10.9441 73.2858C11.2922 73.608 11.8723 73.5049 12.0785 73.1053C12.2074 72.8475 12.2461 66.7889 12.2461 43.6115C12.2461 15.2006 12.2461 14.4272 12.491 13.9631C12.7746 13.4088 13.1613 13.035 13.793 12.6998C14.2313 12.4678 14.9402 12.4549 33 12.4549H51.7559L52.2715 12.7385C52.8645 13.0479 53.2512 13.4475 53.5477 14.0276C53.741 14.4014 53.7539 17.0053 53.7539 43.6115C53.7539 66.7889 53.7926 72.8475 53.9215 73.1053C54.1277 73.5178 54.7723 73.608 55.0816 73.26C55.2879 73.028 55.3008 71.1975 55.275 43.5084L55.2363 14.0018L54.9398 13.4088C54.5016 12.5065 53.8184 11.7975 53.0062 11.3979L52.2715 11.0369L33.1934 11.0112C14.9789 10.9854 14.0895 10.9854 13.432 11.2174Z" fill="#232323"/>
<path d="M24.9436 15.3428C23.1905 16.1291 22.8038 18.4365 24.1831 19.8287C25.021 20.6537 25.0854 20.6666 33.387 20.615C40.6444 20.5764 40.6702 20.5764 41.2116 20.2928C42.7585 19.4549 43.1452 17.3537 41.985 16.0389C41.1343 15.0721 41.4436 15.0979 33.0003 15.0979C25.9878 15.0979 25.4206 15.1236 24.9436 15.3428ZM40.7218 16.9541C41.2761 17.4826 41.2761 18.1787 40.7475 18.7201L40.3737 19.0939H33.0003H25.6268L25.253 18.7201C24.7374 18.2045 24.7245 17.4826 25.2401 17.0057C25.4335 16.8252 25.6784 16.6447 25.7815 16.6061C25.8846 16.5674 29.2104 16.5416 33.155 16.5545L40.335 16.5803L40.7218 16.9541Z" fill="#232323"/>
<path d="M16.9641 23.5022C16.7836 23.76 16.7578 26.3253 16.7578 48.2909C16.7578 67.7171 16.7965 72.8475 16.9254 73.1053C17.1316 73.505 17.7117 73.6081 18.0598 73.2858C18.3047 73.0667 18.3047 72.5253 18.3047 48.8452V24.6366H25.2656H32.2266V48.7807C32.2266 75.3741 32.1621 73.4921 33 73.4921C33.8379 73.4921 33.7734 75.3741 33.7734 48.7807V24.6366H40.7344H47.6953V35.5034C47.6953 45.8803 47.7082 46.396 47.9273 46.5893C48.2238 46.86 48.5977 46.8729 48.9328 46.628C49.1777 46.4475 49.1777 46.1639 49.2164 35.1296C49.2422 25.1264 49.2293 23.7858 49.0488 23.5151L48.8555 23.2186H33H17.1574L16.9641 23.5022Z" fill="#232323"/>
<path d="M3.68769 38.6359C3.50722 38.8035 3.48144 39.3449 3.48144 42.516V46.2027L2.78534 45.5324C2.39862 45.1715 1.99901 44.875 1.883 44.875C1.25136 44.875 0.916202 45.4422 1.21269 46.0094C1.31581 46.2027 1.94745 46.8988 2.61776 47.5434C3.57167 48.4844 3.90683 48.7422 4.20331 48.7422C4.48691 48.7422 4.83495 48.4715 5.95644 47.35C7.42597 45.8805 7.56776 45.6098 7.09081 45.1328C6.6912 44.7332 6.35605 44.8234 5.5955 45.5324L4.89941 46.2027V42.4645C4.89941 39.7445 4.86073 38.7004 4.74472 38.5844C4.52558 38.3652 3.91972 38.391 3.68769 38.6359Z" fill="#232323"/>
<path d="M60.0327 39.835C58.5761 41.3045 58.4472 41.5752 58.9112 42.0393C59.3108 42.4389 59.646 42.3487 60.4065 41.6397L61.1026 40.9694V44.7205C61.1026 48.3041 61.1155 48.4846 61.3475 48.6135C61.7085 48.794 62.0823 48.7682 62.3143 48.5362C62.4948 48.3686 62.5206 47.8272 62.5206 44.6561V40.9694L63.2167 41.6397C63.6034 42.0006 64.0288 42.2971 64.1577 42.2971C64.5831 42.2971 64.8796 41.9748 64.8796 41.5237C64.8796 41.1627 64.6991 40.9178 63.5261 39.7705C61.7472 38.0045 61.8374 38.0045 60.0327 39.835Z" fill="#232323"/>
<path d="M47.8242 51.5652C47.7598 51.707 47.6953 52.4289 47.6953 53.1766C47.6953 54.3754 47.734 54.5816 47.9531 54.8008C48.2883 55.1359 48.5461 55.1231 48.9199 54.7363C49.2164 54.4527 49.2422 54.3367 49.2422 53.1637C49.2422 51.6555 49.0875 51.3203 48.4043 51.3203C48.0949 51.3203 47.9145 51.3977 47.8242 51.5652Z" fill="#232323"/>
<path d="M47.9531 56.4764C47.6953 56.7342 47.6953 56.9018 47.6953 64.894C47.6953 72.7701 47.7082 73.0795 47.9402 73.2858C48.2883 73.608 48.8684 73.5049 49.0746 73.1053C49.2035 72.8475 49.2293 71.0299 49.2035 64.6877C49.1777 56.8373 49.1648 56.5795 48.9328 56.399C48.5848 56.1541 48.2625 56.167 47.9531 56.4764Z" fill="#232323"/>
</g>
<defs>
<clipPath id="clip0_357_27806">
<rect width="66" height="66" fill="white"/>
</clipPath>
</defs>
</svg>
