<svg width="220" height="64" viewBox="0 0 220 64" fill="none" xmlns="http://www.w3.org/2000/svg">
<g clip-path="url(#clip0_658_1004)">
<path d="M86.4877 25V6.63232H95.8814C98.2955 6.63232 100.097 7.0784 101.286 7.97054C102.476 8.8452 103.071 9.99974 103.071 11.4341C103.071 12.3788 102.817 13.2097 102.31 13.9269C101.82 14.6266 101.12 15.1864 100.21 15.6062C99.3188 16.0086 98.2517 16.2097 97.0097 16.2097L97.5345 14.9502C98.829 14.9502 99.9573 15.1514 100.919 15.5537C101.881 15.9386 102.625 16.5071 103.149 17.2593C103.692 17.994 103.963 18.8949 103.963 19.962C103.963 21.5539 103.315 22.7959 102.021 23.688C100.744 24.5627 98.8728 25 96.4062 25H86.4877ZM91.6306 21.2477H95.9864C96.8785 21.2477 97.552 21.099 98.0068 20.8017C98.4792 20.4868 98.7153 20.0145 98.7153 19.3847C98.7153 18.755 98.4792 18.2914 98.0068 17.994C97.552 17.6792 96.8785 17.5217 95.9864 17.5217H91.2633V13.9269H95.1992C96.0739 13.9269 96.7299 13.7782 97.1672 13.4808C97.6045 13.1834 97.8232 12.7374 97.8232 12.1426C97.8232 11.5478 97.6045 11.1105 97.1672 10.8306C96.7299 10.5332 96.0739 10.3845 95.1992 10.3845H91.6306V21.2477ZM104.45 25L112.558 6.63232H117.674L125.809 25H120.403L114.053 9.17756H116.1L109.75 25H104.45ZM108.884 21.4314L110.222 17.6004H119.196L120.534 21.4314H108.884ZM127.282 25V6.63232H135.678C137.358 6.63232 138.801 6.90347 140.008 7.44575C141.232 7.98804 142.177 8.77522 142.842 9.80731C143.506 10.8219 143.839 12.0289 143.839 13.4283C143.839 14.8103 143.506 16.0086 142.842 17.0232C142.177 18.0203 141.232 18.79 140.008 19.3322C138.801 19.857 137.358 20.1194 135.678 20.1194H130.168L132.477 17.9415V25H127.282ZM138.643 25L134.078 18.3089H139.614L144.206 25H138.643ZM132.477 18.4926L130.168 16.1048H135.363C136.448 16.1048 137.253 15.8686 137.777 15.3963C138.32 14.924 138.591 14.268 138.591 13.4283C138.591 12.5712 138.32 11.9064 137.777 11.4341C137.253 10.9618 136.448 10.7257 135.363 10.7257H130.168L132.477 8.3379V18.4926ZM151.349 20.9329L151.061 15.1077L158.959 6.63232H164.679L156.807 15.1602L153.921 18.1777L151.349 20.9329ZM146.705 25V6.63232H151.848V25H146.705ZM159.038 25L153.055 17.4168L156.44 13.7957L165.073 25H159.038ZM166.436 25V6.63232H171.631V20.8804H180.395V25H166.436ZM182.451 25V6.63232H187.647V25H182.451ZM95.6715 57.3674C94.2196 57.3674 92.8726 57.1399 91.6306 56.6851C90.3886 56.2128 89.3128 55.5481 88.4032 54.6909C87.511 53.8338 86.8113 52.8279 86.304 51.6734C85.7967 50.5013 85.543 49.2156 85.543 47.8161C85.543 46.4167 85.7967 45.1397 86.304 43.9852C86.8113 42.8131 87.5198 41.7985 88.4294 40.9414C89.339 40.0842 90.4149 39.4282 91.6569 38.9734C92.9164 38.5011 94.2896 38.2649 95.7765 38.2649C97.5083 38.2649 99.0564 38.5536 100.42 39.1308C101.785 39.7081 102.913 40.539 103.805 41.6236L100.499 44.6149C99.8699 43.9327 99.1876 43.4254 98.4529 43.093C97.7357 42.7432 96.931 42.5682 96.0389 42.5682C95.2517 42.5682 94.5345 42.6907 93.8872 42.9356C93.24 43.1805 92.689 43.5391 92.2341 44.0114C91.7793 44.4662 91.4207 45.0173 91.1583 45.6645C90.9134 46.2942 90.791 47.0115 90.791 47.8161C90.791 48.5858 90.9134 49.2943 91.1583 49.9415C91.4207 50.5888 91.7793 51.1486 92.2341 51.6209C92.689 52.0757 93.2312 52.4343 93.861 52.6967C94.5082 52.9416 95.2167 53.0641 95.9864 53.0641C96.7561 53.0641 97.5083 52.9416 98.243 52.6967C98.9777 52.4343 99.7212 51.997 100.473 51.3847L103.385 55.032C102.336 55.7842 101.12 56.3615 99.7387 56.7638C98.3567 57.1662 97.001 57.3674 95.6715 57.3674ZM98.794 54.3498V47.4225H103.385V55.032L98.794 54.3498ZM104.475 57L112.583 38.6323H117.7L125.834 57H120.429L114.079 41.1775H116.126L109.776 57H104.475ZM108.91 53.4314L110.248 49.6004H119.222L120.56 53.4314H108.91ZM127.307 57V38.6323H132.503V52.8804H141.267V57H127.307ZM143.323 57V38.6323H148.518V52.8804H157.282V57H143.323ZM164.114 45.7432H172.641V49.6267H164.114V45.7432ZM164.481 52.9853H174.085V57H159.338V38.6323H173.743V42.6469H164.481V52.9853ZM176.968 57V38.6323H185.364C187.044 38.6323 188.487 38.9034 189.694 39.4457C190.918 39.988 191.863 40.7752 192.528 41.8073C193.192 42.8219 193.525 44.0289 193.525 45.4283C193.525 46.8103 193.192 48.0086 192.528 49.0232C191.863 50.0203 190.918 50.79 189.694 51.3322C188.487 51.857 187.044 52.1194 185.364 52.1194H179.854L182.163 49.9415V57H176.968ZM188.329 57L183.764 50.3089H189.3L193.892 57H188.329ZM182.163 50.4926L179.854 48.1048H185.049C186.134 48.1048 186.939 47.8686 187.463 47.3963C188.006 46.924 188.277 46.268 188.277 45.4283C188.277 44.5712 188.006 43.9064 187.463 43.4341C186.939 42.9618 186.134 42.7257 185.049 42.7257H179.854L182.163 40.3379V50.4926ZM200.779 57V49.2331L201.986 52.3556L193.773 38.6323H199.257L205.187 48.5771H202.013L207.969 38.6323H213.007L204.82 52.3556L205.975 49.2331V57H200.779Z" fill="white"/>
<path d="M39.082 63.6772V20.3119L57.2329 17.4102V63.6772H39.082Z" fill="url(#paint0_linear_658_1004)"/>
<path d="M41.3711 27.7278V22.8916H44.9686V27.7278H41.3711Z" fill="white"/>
<path d="M46.4395 27.7278V22.8916H50.0369V27.7278H46.4395Z" fill="white"/>
<path d="M51.6738 27.7278V22.8916H55.2713V27.7278H51.6738Z" fill="white"/>
<path d="M41.3711 34.015V29.1787H44.9686V34.015H41.3711Z" fill="white"/>
<path d="M46.4395 34.015V29.1787H50.0369V34.015H46.4395Z" fill="white"/>
<path d="M51.6738 34.015V29.1787H55.2713V34.015H51.6738Z" fill="white"/>
<path d="M41.3711 40.4633V35.627H44.9686V40.4633H41.3711Z" fill="white"/>
<path d="M46.4395 40.4633V35.627H50.0369V40.4633H46.4395Z" fill="white"/>
<path d="M51.6738 40.4633V35.627H55.2713V40.4633H51.6738Z" fill="white"/>
<path d="M41.3711 46.7504V41.9141H44.9686V46.7504H41.3711Z" fill="white"/>
<path d="M46.4395 46.7504V41.9141H50.0369V46.7504H46.4395Z" fill="white"/>
<path d="M51.6738 46.7504V41.9141H55.2713V46.7504H51.6738Z" fill="white"/>
<path d="M41.3711 53.0374V48.2012H44.9686V53.0374H41.3711Z" fill="white"/>
<path d="M46.4395 53.0374V48.2012H50.0369V53.0374H46.4395Z" fill="white"/>
<path d="M51.6738 53.0374V48.2012H55.2713V53.0374H51.6738Z" fill="white"/>
<path d="M0 63.8392H4.74212V17.7334L0 21.6024V63.8392Z" fill="url(#paint1_linear_658_1004)"/>
<path d="M6.37695 63.9996V17.4102L18.1505 21.7628V63.9996H6.37695Z" fill="url(#paint2_linear_658_1004)"/>
<path d="M19.623 63.8388V8.06045L37.1198 0V63.8388H19.623Z" fill="url(#paint3_linear_658_1004)"/>
<path d="M39.082 18.7V0.483398L45.6229 5.48088V17.7328L39.082 18.7Z" fill="url(#paint4_linear_658_1004)"/>
<path d="M58.8672 64.0004V17.7334L65.408 21.9248V64.0004H58.8672Z" fill="url(#paint5_linear_658_1004)"/>
<path d="M23.7109 16.4435V9.99512H26.8178V16.4435H23.7109Z" fill="white"/>
<path d="M28.7793 16.4435V9.99512H31.8862V16.4435H28.7793Z" fill="white"/>
<path d="M23.7109 24.6651V18.2168H26.8178V24.6651H23.7109Z" fill="white"/>
<path d="M28.7793 24.6651V18.2168H31.8862V24.6651H28.7793Z" fill="white"/>
<path d="M23.7109 32.7257V26.2773H26.8178V32.7257H23.7109Z" fill="white"/>
<path d="M28.7793 32.7257V26.2773H31.8862V32.7257H28.7793Z" fill="white"/>
<path d="M23.7109 40.4632V34.0146H26.8178V40.4632H23.7109Z" fill="white"/>
<path d="M28.7793 40.4632V34.0146H31.8862V40.4632H28.7793Z" fill="white"/>
<path d="M23.7109 48.5235V42.0752H26.8178V48.5235H23.7109Z" fill="white"/>
<path d="M10.3027 32.5645V26.1162H14.0637V32.5645H10.3027Z" fill="white"/>
<path d="M10.3027 40.4632V34.0146H14.0637V40.4632H10.3027Z" fill="white"/>
<path d="M10.3027 48.8467V42.3984H14.0637V48.8467H10.3027Z" fill="white"/>
<path d="M10.3027 56.9063V50.458H14.0637V56.9063H10.3027Z" fill="white"/>
<path d="M28.7793 48.5235V42.0752H31.8862V48.5235H28.7793Z" fill="white"/>
<path d="M23.7109 56.5841V50.1357H26.8178V56.5841H23.7109Z" fill="white"/>
</g>
<defs>
<linearGradient id="paint0_linear_658_1004" x1="48.1575" y1="17.4102" x2="48.1575" y2="63.6772" gradientUnits="userSpaceOnUse">
<stop stop-color="#DBBA76"/>
<stop offset="1" stop-color="#F3D69A"/>
</linearGradient>
<linearGradient id="paint1_linear_658_1004" x1="2.37106" y1="17.7334" x2="2.37106" y2="63.8392" gradientUnits="userSpaceOnUse">
<stop stop-color="#DBBA76"/>
<stop offset="1" stop-color="#F3D69A"/>
</linearGradient>
<linearGradient id="paint2_linear_658_1004" x1="12.2637" y1="17.4102" x2="12.2637" y2="63.9996" gradientUnits="userSpaceOnUse">
<stop stop-color="#DBBA76"/>
<stop offset="1" stop-color="#F3D69A"/>
</linearGradient>
<linearGradient id="paint3_linear_658_1004" x1="28.3714" y1="0" x2="28.3714" y2="63.8388" gradientUnits="userSpaceOnUse">
<stop stop-color="#DBBA76"/>
<stop offset="1" stop-color="#F3D69A"/>
</linearGradient>
<linearGradient id="paint4_linear_658_1004" x1="42.3525" y1="0.483398" x2="42.3525" y2="18.7" gradientUnits="userSpaceOnUse">
<stop stop-color="#DBBA76"/>
<stop offset="1" stop-color="#F3D69A"/>
</linearGradient>
<linearGradient id="paint5_linear_658_1004" x1="62.1376" y1="17.7334" x2="62.1376" y2="64.0004" gradientUnits="userSpaceOnUse">
<stop stop-color="#DBBA76"/>
<stop offset="1" stop-color="#F3D69A"/>
</linearGradient>
<clipPath id="clip0_658_1004">
<rect width="220" height="64" fill="white"/>
</clipPath>
</defs>
</svg>
